<mxfile host="Electron" modified="2024-01-16T07:41:31.532Z" agent="Mozilla/5.0 (Windows NT 10.0; Win64; x64) AppleWebKit/537.36 (KHTML, like Gecko) draw.io/22.1.2 Chrome/114.0.5735.289 Electron/25.9.4 Safari/537.36" etag="kmMEHI9o6vvNz6PlpnFk" version="22.1.2" type="device" pages="2">
  <diagram name="After" id="Ha8s6_4_4nTsxysomdbX">
    <mxGraphModel dx="1022" dy="592" grid="1" gridSize="10" guides="1" tooltips="1" connect="1" arrows="1" fold="1" page="1" pageScale="1" pageWidth="827" pageHeight="1169" math="0" shadow="0">
      <root>
        <mxCell id="0" />
        <mxCell id="1" parent="0" />
        <mxCell id="U4OIBK4hdGN6eQNpAXDu-83" value="" style="rounded=0;whiteSpace=wrap;html=1;hachureGap=4;fontFamily=VK Sans Display;fontSource=https%3A%2F%2Ffonts.googleapis.com%2Fcss%3Ffamily%3DArchitects%2BDaughter;fontSize=11;fontColor=#212121;fillColor=none;strokeColor=#fafafa;" parent="1" vertex="1">
          <mxGeometry width="880" height="450" as="geometry" />
        </mxCell>
        <mxCell id="6Icv8xA98AjqYxmJFfoj-1" value="&lt;font style=&quot;font-size: 16px;&quot;&gt;&lt;br&gt;&lt;font style=&quot;font-size: 16px;&quot; face=&quot;VK Sans Display&quot;&gt;&lt;b&gt;LDAP Environment&lt;/b&gt;&lt;/font&gt;&lt;/font&gt;" style="rounded=1;whiteSpace=wrap;html=1;strokeColor=#7C8A9A;strokeWidth=1;fontColor=#212121;fillColor=none;dashed=1;arcSize=12;absoluteArcSize=1;align=center;verticalAlign=top;" parent="1" vertex="1">
          <mxGeometry x="10" y="10" width="310" height="430" as="geometry" />
        </mxCell>
        <mxCell id="U4OIBK4hdGN6eQNpAXDu-78" style="edgeStyle=none;shape=connector;rounded=0;orthogonalLoop=1;jettySize=auto;html=1;labelBackgroundColor=default;strokeColor=#7C8A9A;strokeWidth=1;align=center;verticalAlign=middle;fontFamily=VK Sans Display;fontSize=11;fontColor=#212121;startArrow=none;startFill=0;endArrow=none;endFill=0;exitX=0;exitY=1;exitDx=0;exitDy=0;" parent="1" source="dj83aox9Lud1Fl_rmfFG-11" target="U4OIBK4hdGN6eQNpAXDu-30" edge="1">
          <mxGeometry relative="1" as="geometry" />
        </mxCell>
        <mxCell id="dj83aox9Lud1Fl_rmfFG-11" value="&lt;font color=&quot;#212121&quot;&gt;Static route to 10.56.4.0/22 via 10.56.0.1&lt;/font&gt;" style="rounded=1;whiteSpace=wrap;html=1;fontFamily=VK Sans Display;strokeColor=#7C8A9A;arcsize=12;fillColor=#F6F7F9;spacing=0;spacingTop=12;spacingBottom=12;arcSize=12;absoluteArcSize=1;strokeWidth=1;" parent="1" vertex="1">
          <mxGeometry x="520" y="100" width="140" height="40" as="geometry" />
        </mxCell>
        <mxCell id="6Icv8xA98AjqYxmJFfoj-2" value="&lt;b&gt;&lt;font style=&quot;font-size: 16px;&quot;&gt;&lt;br&gt;VDI Environment&lt;/font&gt;&lt;/b&gt;" style="rounded=1;whiteSpace=wrap;html=1;strokeColor=#7C8A9A;strokeWidth=1;fontColor=#212121;fillColor=none;dashed=1;arcSize=12;absoluteArcSize=1;verticalAlign=top;" parent="1" vertex="1">
          <mxGeometry x="420" y="10" width="450" height="430" as="geometry" />
        </mxCell>
        <mxCell id="U4OIBK4hdGN6eQNpAXDu-37" style="edgeStyle=none;shape=connector;rounded=0;orthogonalLoop=1;jettySize=auto;html=1;exitX=0;exitY=0.5;exitDx=0;exitDy=0;entryX=1;entryY=0.5;entryDx=0;entryDy=0;labelBackgroundColor=default;strokeColor=#7C8A9A;strokeWidth=2;align=center;verticalAlign=middle;fontFamily=VK Sans Display;fontSize=11;fontColor=#212121;startArrow=oval;startFill=1;endArrow=oval;endFill=1;" parent="1" source="U4OIBK4hdGN6eQNpAXDu-1" target="U4OIBK4hdGN6eQNpAXDu-4" edge="1">
          <mxGeometry relative="1" as="geometry" />
        </mxCell>
        <mxCell id="U4OIBK4hdGN6eQNpAXDu-41" style="edgeStyle=none;shape=connector;rounded=0;orthogonalLoop=1;jettySize=auto;html=1;exitX=1;exitY=0.5;exitDx=0;exitDy=0;entryX=0;entryY=0.5;entryDx=0;entryDy=0;labelBackgroundColor=default;strokeColor=#7C8A9A;strokeWidth=2;align=center;verticalAlign=middle;fontFamily=VK Sans Display;fontSize=11;fontColor=#212121;startArrow=oval;startFill=1;endArrow=oval;endFill=1;" parent="1" source="U4OIBK4hdGN6eQNpAXDu-1" target="U4OIBK4hdGN6eQNpAXDu-7" edge="1">
          <mxGeometry relative="1" as="geometry" />
        </mxCell>
        <mxCell id="U4OIBK4hdGN6eQNpAXDu-1" value="Internet" style="shape=image;verticalLabelPosition=bottom;labelBackgroundColor=default;verticalAlign=top;aspect=fixed;imageAspect=0;image=data:image/svg+xml,PHN2ZyB4bWxucz0iaHR0cDovL3d3dy53My5vcmcvMjAwMC9zdmciIGZpbGw9Im5vbmUiIHZpZXdCb3g9IjAgMCAyOCAyOCIgaGVpZ2h0PSIyOCIgd2lkdGg9IjI4Ij4mI3hhOzxwYXRoIGZpbGw9IiMwMDc3RkYiIGQ9Ik0xNC4wMDI4IDJMMTQgMkM3LjM3MjU4IDIgMiA3LjM3MjU4IDIgMTRDMiAyMC42Mjc0IDcuMzcyNTggMjYgMTQgMjZDMjAuNjI3NCAyNiAyNiAyMC42Mjc0IDI2IDE0QzI2IDcuMzczNSAyMC42Mjg5IDIuMDAxNDkgMTQuMDAyOCAyWk0xNi4zMTM4IDIzLjczMUMxOS4wMjI2IDIzLjA4OTMgMjEuMzA1MiAyMS4zNDU5IDIyLjY2MjIgMTlIMTguMzc4N0MxNy45Nzc5IDIwLjUyODYgMTcuNDI5NiAyMS43OTE0IDE2Ljg3NTYgMjIuNzk1NkMxNi42ODY4IDIzLjEzNzcgMTYuNDk3NyAyMy40NDk0IDE2LjMxMzggMjMuNzMxWk0xOC43ODUzIDE3SDIzLjU0MjJDMjMuODM5NiAxNi4wNTMgMjQgMTUuMDQ1MiAyNCAxNEMyNCAxMi45NTQ4IDIzLjgzOTYgMTEuOTQ3IDIzLjU0MjIgMTFIMTguNzg1M0MxOC45MjE0IDExLjkyNDQgMTkgMTIuOTI0IDE5IDE0QzE5IDE1LjA3NiAxOC45MjE0IDE2LjA3NTYgMTguNzg1MyAxN1pNMTYuNzYxMiAxMUMxNi45MTExIDExLjkwOTcgMTcgMTIuOTA5IDE3IDE0QzE3IDE1LjA5MSAxNi45MTExIDE2LjA5MDMgMTYuNzYxMiAxN0gxMS4yMzg4QzExLjA4ODkgMTYuMDkwMyAxMSAxNS4wOTEgMTEgMTRDMTEgMTIuOTA5IDExLjA4ODkgMTEuOTA5NyAxMS4yMzg4IDExSDE2Ljc2MTJaTTE4LjM3ODcgOUgyMi42NjIyQzIxLjMwNTIgNi42NTQxNCAxOS4wMjI2IDQuOTEwNjkgMTYuMzEzOCA0LjI2OTAzQzE2LjQ5NzcgNC41NTA2NCAxNi42ODY4IDQuODYyMzEgMTYuODc1NiA1LjIwNDQyQzE3LjQyOTYgNi4yMDg2IDE3Ljk3NzkgNy40NzE0NSAxOC4zNzg3IDlaTTExLjY4NjIgNC4yNjkwM0M4Ljk3NzQyIDQuOTEwNjkgNi42OTQ4MyA2LjY1NDE0IDUuMzM3ODIgOUg5LjYyMTMxQzEwLjAyMjEgNy40NzE0NSAxMC41NzA0IDYuMjA4NiAxMS4xMjQ0IDUuMjA0NDJDMTEuMzEzMiA0Ljg2MjMxIDExLjUwMjMgNC41NTA2NCAxMS42ODYyIDQuMjY5MDNaTTExLjY5OCA5QzEyLjAzNTcgNy44Njg2MiAxMi40NTc4IDYuOTI3NzMgMTIuODc1NiA2LjE3MDU4QzEzLjI3OTEgNS40MzkxOCAxMy42ODAxIDQuODc2NjYgMTQgNC40NzgzNkMxNC4zMTk5IDQuODc2NjYgMTQuNzIwOSA1LjQzOTE4IDE1LjEyNDQgNi4xNzA1OEMxNS41NDIyIDYuOTI3NzMgMTUuOTY0MyA3Ljg2ODYyIDE2LjMwMiA5SDExLjY5OFpNOS4yMTQ2OCAxMUg0LjQ1NzhDNC4xNjAzNSAxMS45NDcgNCAxMi45NTQ4IDQgMTRDNCAxNS4wNDUyIDQuMTYwMzUgMTYuMDUzIDQuNDU3OCAxN0g5LjIxNDY4QzkuMDc4NTcgMTYuMDc1NiA5IDE1LjA3NiA5IDE0QzkgMTIuOTI0IDkuMDc4NTcgMTEuOTI0NCA5LjIxNDY4IDExWk05LjYyMTMxIDE5SDUuMzM3ODJDNi42OTQ4MyAyMS4zNDU5IDguOTc3NDIgMjMuMDg5MyAxMS42ODYyIDIzLjczMUMxMS41MDIzIDIzLjQ0OTQgMTEuMzEzMiAyMy4xMzc3IDExLjEyNDQgMjIuNzk1NkMxMC41NzA0IDIxLjc5MTQgMTAuMDIyMSAyMC41Mjg2IDkuNjIxMzEgMTlaTTExLjY5OCAxOUgxNi4zMDJDMTUuOTY0MyAyMC4xMzE0IDE1LjU0MjIgMjEuMDcyMyAxNS4xMjQ0IDIxLjgyOTRDMTQuNzIwOSAyMi41NjA4IDE0LjMxOTkgMjMuMTIzMyAxNCAyMy41MjE2QzEzLjY4MDEgMjMuMTIzMyAxMy4yNzkxIDIyLjU2MDggMTIuODc1NiAyMS44Mjk0QzEyLjQ1NzggMjEuMDcyMyAxMi4wMzU3IDIwLjEzMTQgMTEuNjk4IDE5WiIgY2xpcC1ydWxlPSJldmVub2RkIiBmaWxsLXJ1bGU9ImV2ZW5vZGQiLz4mI3hhOzwvc3ZnPg==;fontSize=16;fontFamily=VK Sans Display;fontSource=https%3A%2F%2Ffonts.googleapis.com%2Fcss%3Ffamily%3DArchitects%2BDaughter;" parent="1" vertex="1">
          <mxGeometry x="352" y="350" width="40" height="40" as="geometry" />
        </mxCell>
        <mxCell id="U4OIBK4hdGN6eQNpAXDu-60" style="edgeStyle=none;shape=connector;rounded=0;orthogonalLoop=1;jettySize=auto;html=1;exitX=0;exitY=0.5;exitDx=0;exitDy=0;entryX=1;entryY=0.5;entryDx=0;entryDy=0;labelBackgroundColor=default;strokeColor=#7C8A9A;strokeWidth=2;align=center;verticalAlign=middle;fontFamily=VK Sans Display;fontSize=11;fontColor=#212121;startArrow=oval;startFill=1;endArrow=oval;endFill=1;" parent="1" source="U4OIBK4hdGN6eQNpAXDu-4" target="U4OIBK4hdGN6eQNpAXDu-29" edge="1">
          <mxGeometry relative="1" as="geometry" />
        </mxCell>
        <mxCell id="U4OIBK4hdGN6eQNpAXDu-61" value="10.10.2.0/24" style="edgeLabel;html=1;align=center;verticalAlign=middle;resizable=0;points=[];fontSize=14;fontFamily=VK Sans Display;fontColor=#212121;" parent="U4OIBK4hdGN6eQNpAXDu-60" vertex="1" connectable="0">
          <mxGeometry x="0.2839" y="-1" relative="1" as="geometry">
            <mxPoint x="18" y="1" as="offset" />
          </mxGeometry>
        </mxCell>
        <mxCell id="U4OIBK4hdGN6eQNpAXDu-64" style="edgeStyle=none;shape=connector;rounded=0;orthogonalLoop=1;jettySize=auto;html=1;exitX=0.5;exitY=0;exitDx=0;exitDy=0;entryX=0.5;entryY=0;entryDx=0;entryDy=0;labelBackgroundColor=default;strokeColor=#E188D0;strokeWidth=2;align=center;verticalAlign=middle;fontFamily=VK Sans Display;fontSize=11;fontColor=#212121;startArrow=oval;startFill=1;endArrow=oval;endFill=1;dashed=1;" parent="1" source="U4OIBK4hdGN6eQNpAXDu-4" target="U4OIBK4hdGN6eQNpAXDu-30" edge="1">
          <mxGeometry relative="1" as="geometry">
            <Array as="points">
              <mxPoint x="230" y="90" />
              <mxPoint x="500" y="90" />
            </Array>
          </mxGeometry>
        </mxCell>
        <mxCell id="U4OIBK4hdGN6eQNpAXDu-65" value="Site-to-Site IPsec" style="edgeLabel;html=1;align=center;verticalAlign=middle;resizable=0;points=[];fontSize=11;fontFamily=VK Sans Display;fontColor=#212121;" parent="U4OIBK4hdGN6eQNpAXDu-64" vertex="1" connectable="0">
          <mxGeometry x="0.2338" y="1" relative="1" as="geometry">
            <mxPoint as="offset" />
          </mxGeometry>
        </mxCell>
        <mxCell id="U4OIBK4hdGN6eQNpAXDu-4" value="priv-router" style="shape=image;verticalLabelPosition=bottom;labelBackgroundColor=default;verticalAlign=top;aspect=fixed;imageAspect=0;image=data:image/svg+xml,PHN2ZyB4bWxucz0iaHR0cDovL3d3dy53My5vcmcvMjAwMC9zdmciIGZpbGw9Im5vbmUiIHZpZXdCb3g9IjAgMCAyOCAyOCIgaGVpZ2h0PSIyOCIgd2lkdGg9IjI4Ij4mI3hhOzxwYXRoIGZpbGw9IiMwMDc3RkYiIGQ9Ik03LjA3MjkxIDExLjIyOTJDOC44NzM1OCAxMS4yMjkyIDEwLjQwNjggMTAuMDg0MSAxMC45ODQxIDguNDgyMzVDMTEuMDYxNCA4LjI2NzcyIDExLjI1NzcgOC4xMTE5OCAxMS40ODU4IDguMTExOThIMTcuNDYzNUMxOC44MDI1IDguMTExOTggMTkuODg4IDkuMTk3NDUgMTkuODg4IDEwLjUzNjVDMTkuODg4IDExLjg3NTUgMTguODAyNSAxMi45NjA5IDE3LjQ2MzUgMTIuOTYwOUgxMC41MzY0QzguMDQ5NzMgMTIuOTYwOSA2LjAzMzg0IDE0Ljk3NjggNi4wMzM4NCAxNy40NjM1QzYuMDMzODQgMTkuOTUwMyA4LjA0OTczIDIxLjk2NjEgMTAuNTM2NCAyMS45NjYxSDE2LjUxNDJDMTYuNzQyMyAyMS45NjYxIDE2LjkzODUgMjIuMTIxOSAxNy4wMTU5IDIyLjMzNjVDMTcuNTkzMiAyMy45MzgyIDE5LjEyNjQgMjUuMDgzMyAyMC45MjcxIDI1LjA4MzNDMjMuMjIyNSAyNS4wODMzIDI1LjA4MzMgMjMuMjIyNSAyNS4wODMzIDIwLjkyNzFDMjUuMDgzMyAxOC42MzE2IDIzLjIyMjUgMTYuNzcwOCAyMC45MjcxIDE2Ljc3MDhDMTkuMTI2NCAxNi43NzA4IDE3LjU5MzIgMTcuOTE1OSAxNy4wMTU5IDE5LjUxNzZDMTYuOTM4NSAxOS43MzIzIDE2Ljc0MjMgMTkuODg4IDE2LjUxNDIgMTkuODg4SDEwLjUzNjRDOS4xOTc0NSAxOS44ODggOC4xMTE5NyAxOC44MDI1IDguMTExOTcgMTcuNDYzNUM4LjExMTk3IDE2LjEyNDUgOS4xOTc0NSAxNS4wMzkxIDEwLjUzNjQgMTUuMDM5MUgxNy40NjM1QzE5Ljk1MDIgMTUuMDM5MSAyMS45NjYxIDEzLjAyMzIgMjEuOTY2MSAxMC41MzY1QzIxLjk2NjEgOC4wNDk3NCAxOS45NTAyIDYuMDMzODUgMTcuNDYzNSA2LjAzMzg1SDExLjQ4NThDMTEuMjU3NyA2LjAzMzg1IDExLjA2MTQgNS44NzgxMSAxMC45ODQxIDUuNjYzNDhDMTAuNDA2OCA0LjA2MTc2IDguODczNTggMi45MTY2NiA3LjA3MjkxIDIuOTE2NjZDNC43Nzc0NyAyLjkxNjY2IDIuOTE2NjYgNC43Nzc0OCAyLjkxNjY2IDcuMDcyOTFDMi45MTY2NiA5LjM2ODM1IDQuNzc3NDcgMTEuMjI5MiA3LjA3MjkxIDExLjIyOTJaTTcuMDcyOTEgOS4xNTEwNEM4LjIyMDYyIDkuMTUxMDQgOS4xNTEwMyA4LjIyMDYzIDkuMTUxMDMgNy4wNzI5MUM5LjE1MTAzIDUuOTI1MiA4LjIyMDYyIDQuOTk0NzkgNy4wNzI5MSA0Ljk5NDc5QzUuOTI1MTkgNC45OTQ3OSA0Ljk5NDc4IDUuOTI1MiA0Ljk5NDc4IDcuMDcyOTFDNC45OTQ3OCA4LjIyMDYzIDUuOTI1MTkgOS4xNTEwNCA3LjA3MjkxIDkuMTUxMDRaTTIzLjAwNTIgMjAuOTI3MUMyMy4wMDUyIDIyLjA3NDggMjIuMDc0OCAyMy4wMDUyIDIwLjkyNzEgMjMuMDA1MkMxOS43Nzk0IDIzLjAwNTIgMTguODQ4OSAyMi4wNzQ4IDE4Ljg0ODkgMjAuOTI3MUMxOC44NDg5IDE5Ljc3OTQgMTkuNzc5NCAxOC44NDkgMjAuOTI3MSAxOC44NDlDMjIuMDc0OCAxOC44NDkgMjMuMDA1MiAxOS43Nzk0IDIzLjAwNTIgMjAuOTI3MVoiIGNsaXAtcnVsZT0iZXZlbm9kZCIgZmlsbC1ydWxlPSJldmVub2RkIi8+JiN4YTs8L3N2Zz4=;fontFamily=VK Sans Display;fontSource=https%3A%2F%2Ffonts.googleapis.com%2Fcss%3Ffamily%3DArchitects%2BDaughter;fontSize=16;" parent="1" vertex="1">
          <mxGeometry x="210" y="350" width="40" height="40" as="geometry" />
        </mxCell>
        <mxCell id="U4OIBK4hdGN6eQNpAXDu-42" style="edgeStyle=none;shape=connector;rounded=0;orthogonalLoop=1;jettySize=auto;html=1;exitX=0.5;exitY=0;exitDx=0;exitDy=0;labelBackgroundColor=default;strokeColor=#7C8A9A;strokeWidth=2;align=center;verticalAlign=middle;fontFamily=VK Sans Display;fontSize=11;fontColor=#212121;startArrow=oval;startFill=1;endArrow=oval;endFill=1;" parent="1" source="U4OIBK4hdGN6eQNpAXDu-7" target="U4OIBK4hdGN6eQNpAXDu-30" edge="1">
          <mxGeometry relative="1" as="geometry">
            <Array as="points">
              <mxPoint x="580" y="200" />
            </Array>
          </mxGeometry>
        </mxCell>
        <mxCell id="U4OIBK4hdGN6eQNpAXDu-46" value="10.56.0.0/24" style="edgeLabel;html=1;align=center;verticalAlign=middle;resizable=0;points=[];fontSize=14;fontFamily=VK Sans Display;fontColor=#212121;" parent="U4OIBK4hdGN6eQNpAXDu-42" vertex="1" connectable="0">
          <mxGeometry x="-0.116" y="3" relative="1" as="geometry">
            <mxPoint y="39" as="offset" />
          </mxGeometry>
        </mxCell>
        <mxCell id="U4OIBK4hdGN6eQNpAXDu-68" value="eth1" style="edgeLabel;html=1;align=center;verticalAlign=middle;resizable=0;points=[];fontSize=14;fontFamily=VK Sans Display;fontColor=#212121;" parent="U4OIBK4hdGN6eQNpAXDu-42" vertex="1" connectable="0">
          <mxGeometry x="0.8977" y="-2" relative="1" as="geometry">
            <mxPoint x="9" y="1" as="offset" />
          </mxGeometry>
        </mxCell>
        <mxCell id="U4OIBK4hdGN6eQNpAXDu-49" style="edgeStyle=none;shape=connector;rounded=0;orthogonalLoop=1;jettySize=auto;html=1;exitX=1;exitY=0.5;exitDx=0;exitDy=0;entryX=0;entryY=0.5;entryDx=0;entryDy=0;labelBackgroundColor=default;strokeColor=#7C8A9A;strokeWidth=2;align=center;verticalAlign=middle;fontFamily=VK Sans Display;fontSize=11;fontColor=#212121;startArrow=oval;startFill=1;endArrow=oval;endFill=1;" parent="1" source="U4OIBK4hdGN6eQNpAXDu-7" target="U4OIBK4hdGN6eQNpAXDu-47" edge="1">
          <mxGeometry relative="1" as="geometry" />
        </mxCell>
        <mxCell id="U4OIBK4hdGN6eQNpAXDu-50" value="10.55.4.0/22" style="edgeLabel;html=1;align=center;verticalAlign=middle;resizable=0;points=[];fontSize=14;fontFamily=VK Sans Display;fontColor=#212121;" parent="U4OIBK4hdGN6eQNpAXDu-49" vertex="1" connectable="0">
          <mxGeometry x="-0.0657" relative="1" as="geometry">
            <mxPoint x="15" as="offset" />
          </mxGeometry>
        </mxCell>
        <mxCell id="U4OIBK4hdGN6eQNpAXDu-7" value="vdi-router" style="shape=image;verticalLabelPosition=bottom;labelBackgroundColor=default;verticalAlign=top;aspect=fixed;imageAspect=0;image=data:image/svg+xml,PHN2ZyB4bWxucz0iaHR0cDovL3d3dy53My5vcmcvMjAwMC9zdmciIGZpbGw9Im5vbmUiIHZpZXdCb3g9IjAgMCAyOCAyOCIgaGVpZ2h0PSIyOCIgd2lkdGg9IjI4Ij4mI3hhOzxwYXRoIGZpbGw9IiMwMDc3RkYiIGQ9Ik03LjA3MjkxIDExLjIyOTJDOC44NzM1OCAxMS4yMjkyIDEwLjQwNjggMTAuMDg0MSAxMC45ODQxIDguNDgyMzVDMTEuMDYxNCA4LjI2NzcyIDExLjI1NzcgOC4xMTE5OCAxMS40ODU4IDguMTExOThIMTcuNDYzNUMxOC44MDI1IDguMTExOTggMTkuODg4IDkuMTk3NDUgMTkuODg4IDEwLjUzNjVDMTkuODg4IDExLjg3NTUgMTguODAyNSAxMi45NjA5IDE3LjQ2MzUgMTIuOTYwOUgxMC41MzY0QzguMDQ5NzMgMTIuOTYwOSA2LjAzMzg0IDE0Ljk3NjggNi4wMzM4NCAxNy40NjM1QzYuMDMzODQgMTkuOTUwMyA4LjA0OTczIDIxLjk2NjEgMTAuNTM2NCAyMS45NjYxSDE2LjUxNDJDMTYuNzQyMyAyMS45NjYxIDE2LjkzODUgMjIuMTIxOSAxNy4wMTU5IDIyLjMzNjVDMTcuNTkzMiAyMy45MzgyIDE5LjEyNjQgMjUuMDgzMyAyMC45MjcxIDI1LjA4MzNDMjMuMjIyNSAyNS4wODMzIDI1LjA4MzMgMjMuMjIyNSAyNS4wODMzIDIwLjkyNzFDMjUuMDgzMyAxOC42MzE2IDIzLjIyMjUgMTYuNzcwOCAyMC45MjcxIDE2Ljc3MDhDMTkuMTI2NCAxNi43NzA4IDE3LjU5MzIgMTcuOTE1OSAxNy4wMTU5IDE5LjUxNzZDMTYuOTM4NSAxOS43MzIzIDE2Ljc0MjMgMTkuODg4IDE2LjUxNDIgMTkuODg4SDEwLjUzNjRDOS4xOTc0NSAxOS44ODggOC4xMTE5NyAxOC44MDI1IDguMTExOTcgMTcuNDYzNUM4LjExMTk3IDE2LjEyNDUgOS4xOTc0NSAxNS4wMzkxIDEwLjUzNjQgMTUuMDM5MUgxNy40NjM1QzE5Ljk1MDIgMTUuMDM5MSAyMS45NjYxIDEzLjAyMzIgMjEuOTY2MSAxMC41MzY1QzIxLjk2NjEgOC4wNDk3NCAxOS45NTAyIDYuMDMzODUgMTcuNDYzNSA2LjAzMzg1SDExLjQ4NThDMTEuMjU3NyA2LjAzMzg1IDExLjA2MTQgNS44NzgxMSAxMC45ODQxIDUuNjYzNDhDMTAuNDA2OCA0LjA2MTc2IDguODczNTggMi45MTY2NiA3LjA3MjkxIDIuOTE2NjZDNC43Nzc0NyAyLjkxNjY2IDIuOTE2NjYgNC43Nzc0OCAyLjkxNjY2IDcuMDcyOTFDMi45MTY2NiA5LjM2ODM1IDQuNzc3NDcgMTEuMjI5MiA3LjA3MjkxIDExLjIyOTJaTTcuMDcyOTEgOS4xNTEwNEM4LjIyMDYyIDkuMTUxMDQgOS4xNTEwMyA4LjIyMDYzIDkuMTUxMDMgNy4wNzI5MUM5LjE1MTAzIDUuOTI1MiA4LjIyMDYyIDQuOTk0NzkgNy4wNzI5MSA0Ljk5NDc5QzUuOTI1MTkgNC45OTQ3OSA0Ljk5NDc4IDUuOTI1MiA0Ljk5NDc4IDcuMDcyOTFDNC45OTQ3OCA4LjIyMDYzIDUuOTI1MTkgOS4xNTEwNCA3LjA3MjkxIDkuMTUxMDRaTTIzLjAwNTIgMjAuOTI3MUMyMy4wMDUyIDIyLjA3NDggMjIuMDc0OCAyMy4wMDUyIDIwLjkyNzEgMjMuMDA1MkMxOS43Nzk0IDIzLjAwNTIgMTguODQ4OSAyMi4wNzQ4IDE4Ljg0ODkgMjAuOTI3MUMxOC44NDg5IDE5Ljc3OTQgMTkuNzc5NCAxOC44NDkgMjAuOTI3MSAxOC44NDlDMjIuMDc0OCAxOC44NDkgMjMuMDA1MiAxOS43Nzk0IDIzLjAwNTIgMjAuOTI3MVoiIGNsaXAtcnVsZT0iZXZlbm9kZCIgZmlsbC1ydWxlPSJldmVub2RkIi8+JiN4YTs8L3N2Zz4=;fontFamily=VK Sans Display;fontSource=https%3A%2F%2Ffonts.googleapis.com%2Fcss%3Ffamily%3DArchitects%2BDaughter;fontSize=16;" parent="1" vertex="1">
          <mxGeometry x="560" y="350" width="40" height="40" as="geometry" />
        </mxCell>
        <mxCell id="U4OIBK4hdGN6eQNpAXDu-29" value="LDAP" style="shape=image;verticalLabelPosition=bottom;labelBackgroundColor=default;verticalAlign=top;aspect=fixed;imageAspect=0;image=data:image/svg+xml,PHN2ZyB4bWxucz0iaHR0cDovL3d3dy53My5vcmcvMjAwMC9zdmciIGZpbGw9Im5vbmUiIHZpZXdCb3g9IjAgMCAyOCAyOCIgaGVpZ2h0PSIyOCIgd2lkdGg9IjI4Ij4mI3hhOzxwYXRoIGZpbGw9IiMwMDc3RkYiIGQ9Ik0yLjkxNjY2IDE0QzIuOTE2NjYgOC43NzUyNiAyLjkxNjY2IDYuMTYyODkgNC41Mzk3NyA0LjUzOTc3QzYuMTYyODkgMi45MTY2NiA4Ljc3NTI2IDIuOTE2NjYgMTQgMi45MTY2NkMxOS4yMjQ3IDIuOTE2NjYgMjEuODM3MSAyLjkxNjY2IDIzLjQ2MDIgNC41Mzk3N0MyNS4wODMzIDYuMTYyODkgMjUuMDgzMyA4Ljc3NTI2IDI1LjA4MzMgMTRDMjUuMDgzMyAxNS4xNjI2IDI1LjA2MDIgMTYuNDc3NiAyNS4wMzA4IDE3LjUzOThDMjUuMDE1OSAxOC4wNzU5IDI0LjU3NTYgMTguNSAyNC4wMzkzIDE4LjVDMjMuNDczMyAxOC41IDIzLjAxNDkgMTguMDI5MiAyMy4wMTIxIDE3LjQ2MzFDMjMuMDExMSAxNy4yNTUxIDIzLjAwOTIgMTcuMDM4NiAyMy4wMDczIDE2LjgyM0MyMy4wMDQgMTYuNDM5MiAyMy4wMDA3IDE2LjA1ODMgMjMuMDAyMyAxNS43MzM0QzIzLjAwNDIgMTUuMzUwMyAyMi42OTM2IDE1LjAzOTEgMjIuMzEwNiAxNS4wMzkxSDUuNjg5MzlDNS4zMDYzNCAxNS4wMzkxIDQuOTk1NzcgMTUuMzUwMyA0Ljk5NzY4IDE1LjczMzRDNS4wMDY0MiAxNy40ODQzIDUuMDQxMjIgMTguNzc4IDUuMTc5MTQgMTkuODAzOEM1LjM1MTA1IDIxLjA4MjQgNS42NDgxNCAyMS42Mjk3IDYuMDA5MjMgMjEuOTkwN0M2LjM3MDMxIDIyLjM1MTggNi45MTc1NSAyMi42NDg5IDguMTk2MTggMjIuODIwOEM4LjQ0NzY1IDIyLjg1NDYgOC43MTUyMSAyMi44ODIzIDkuMDAxNjUgMjIuOTA0OEM5LjU1ODQxIDIyLjk0ODYgMTAgMjMuNDAzMSAxMCAyMy45NjE2QzEwIDI0LjU1MTEgOS41MDk0IDI1LjAyNjQgOC45MjE1IDI0Ljk4MjZDNi44NjE1MyAyNC44Mjg4IDUuNTIwMTggMjQuNDQwNiA0LjUzOTc3IDIzLjQ2MDJDMi45MTY2NiAyMS44MzcxIDIuOTE2NjYgMTkuMjI0NyAyLjkxNjY2IDE0Wk0yMy4wMDIzIDEyLjI2NjZDMjMuMDA0MiAxMi42NDk2IDIyLjY5MzYgMTIuOTYwOSAyMi4zMTA2IDEyLjk2MDlINS42ODkzOUM1LjMwNjM0IDEyLjk2MDkgNC45OTU3NyAxMi42NDk2IDQuOTk3NjggMTIuMjY2NkM1LjAwNjQyIDEwLjUxNTYgNS4wNDEyMiA5LjIyMjAxIDUuMTc5MTQgOC4xOTYxOEM1LjM1MTA1IDYuOTE3NTUgNS42NDgxNCA2LjM3MDMxIDYuMDA5MjMgNi4wMDkyM0M2LjM3MDMxIDUuNjQ4MTQgNi45MTc1NSA1LjM1MTA1IDguMTk2MTggNS4xNzkxNEM5LjUzNDU5IDQuOTk5MiAxMS4zMjg5IDQuOTk0NzggMTQgNC45OTQ3OEMxNi42NzExIDQuOTk0NzggMTguNDY1NCA0Ljk5OTIgMTkuODAzOCA1LjE3OTE0QzIxLjA4MjQgNS4zNTEwNSAyMS42Mjk3IDUuNjQ4MTQgMjEuOTkwNyA2LjAwOTIzQzIyLjM1MTggNi4zNzAzMSAyMi42NDg5IDYuOTE3NTUgMjIuODIwOCA4LjE5NjE4QzIyLjk1ODggOS4yMjIwMSAyMi45OTM2IDEwLjUxNTYgMjMuMDAyMyAxMi4yNjY2Wk0xNS4xMjQgMjQuNjU4N0wxNi45MTQyIDIwLjQ0MjlDMTYuOTcyNSAyMC4zMTE2IDE3LjA2NzcgMjAuMTUwNSAxNy4yMzIzIDIwLjA0OTZDMTcuMzgzMiAxOS45NTUxIDE3LjU1MTMgMTkuOTI2MyAxNy43MDMyIDE5LjkyNjNDMTcuODM4OCAxOS45MjYzIDE3Ljk4NCAxOS45NTEgMTguMTE5NCAyMC4wMjM3QzE4LjI1NTkgMjAuMDk2OSAxOC4zNTkyIDIwLjIwNjYgMTguNDI3NCAyMC4zMzgxQzE4LjU2OTkgMjAuNTk1MyAxOC41NTExIDIwLjg3MSAxOC40NDA4IDIxLjExM0wxNS45MjI3IDI2Ljg4OTJDMTUuODU4NCAyNy4wMzYxIDE1Ljc2MjEgMjcuMTcwNSAxNS42MjYyIDI3LjI3MjRMMTUuNjIxMiAyNy4yNzYxQzE1LjQ2OTYgMjcuMzg2NCAxNS4yOTYyIDI3LjQyNTYgMTUuMTMyNSAyNy40MjU2QzE0Ljk2NDYgMjcuNDI1NiAxNC43OTgxIDI3LjM4MDkgMTQuNjUxNyAyNy4yNzgxQzE0LjUwODYgMjcuMTc3NiAxNC40MTA4IDI3LjA0MDEgMTQuMzQ1IDI2Ljg5NTJMMTQuMzQyNCAyNi44ODk2TDExLjg0NDcgMjEuMTc4QzExLjc0MTggMjAuOTI4MiAxMS42OTIxIDIwLjYyOSAxMS44MzIxIDIwLjM0ODhDMTEuOTg2NiAyMC4wMzk5IDEyLjI4MzMgMTkuOTI2MyAxMi41NzAzIDE5LjkyNjNDMTIuNzMzIDE5LjkyNjMgMTIuOTAxNCAxOS45NjI4IDEzLjA1MjMgMjAuMDYwNEMxMy4yMDQ1IDIwLjE1ODYgMTMuMzA3MyAyMC4yOTg0IDEzLjM3MTQgMjAuNDUxMkwxMy4zNzE4IDIwLjQ1MjFMMTUuMTI0IDI0LjY1ODdaTTIxLjI4OTUgMjQuMjEwMVYyNi41NTc0QzIxLjI4OTUgMjYuNzkwNCAyMS4yMDUzIDI3LjAwNTEgMjEuMDM3MSAyNy4xNzMzQzIwLjg2ODkgMjcuMzQxNSAyMC42NTQzIDI3LjQyNTYgMjAuNDIxMiAyNy40MjU2QzIwLjE4ODIgMjcuNDI1NiAxOS45NzM1IDI3LjM0MTUgMTkuODA1MyAyNy4xNzMzQzE5LjYzNzEgMjcuMDA1MSAxOS41NTMgMjYuNzkwNCAxOS41NTMgMjYuNTU3NFYyMC43OTQ2QzE5LjU1MyAyMC41NjQxIDE5LjYzMiAyMC4zNDMgMTkuODEwNCAyMC4xNzM1QzE5Ljk3NzkgMjAuMDA4OCAyMC4xOTA1IDE5LjkyNjMgMjAuNDIxMiAxOS45MjYzQzIwLjc1NzcgMTkuOTI2MyAyMS4wMjI3IDIwLjA5OTcgMjEuMTgyMyAyMC4zNzkxTDIxLjE4ODIgMjAuMzg5NUwyMy4zMzQyIDI0LjY4ODNMMjUuNDI0NCAyMC4zOTE0TDI1LjQzMTQgMjAuMzc5MUMyNS41OTExIDIwLjA5OTcgMjUuODU2MSAxOS45MjYzIDI2LjE5MjUgMTkuOTI2M0MyNi40MjMyIDE5LjkyNjMgMjYuNjM1OSAyMC4wMDg4IDI2LjgwMzMgMjAuMTczNkMyNi45ODE4IDIwLjM0MyAyNy4wNjA4IDIwLjU2NDEgMjcuMDYwOCAyMC43OTQ2VjI2LjU1NzRDMjcuMDYwOCAyNi43OTcxIDI2Ljk2ODggMjcuMDEyOCAyNi43OTUxIDI3LjE3ODFDMjYuNjMxOCAyNy4zMzkgMjYuNDIzNiAyNy40MjU2IDI2LjE5MjUgMjcuNDI1NkMyNS45NTk1IDI3LjQyNTYgMjUuNzQ0OCAyNy4zNDE1IDI1LjU3NjYgMjcuMTczM0MyNS40MDg0IDI3LjAwNTEgMjUuMzI0MyAyNi43OTA0IDI1LjMyNDMgMjYuNTU3NFYyNC4xNTg1TDI0LjA2MDUgMjYuNzM0M0wyNC4wNDYyIDI2Ljc1NjJDMjMuODgxMiAyNy4wMDg1IDIzLjYyNzEgMjcuMTcwMiAyMy4zMDY5IDI3LjE3MDJDMjMuMTQ0MyAyNy4xNzAyIDIyLjk4MDQgMjcuMTMxMiAyMi44MzM0IDI3LjAzNjJDMjIuNjg4MyAyNi45NDI1IDIyLjU4NiAyNi44MTE1IDIyLjUxNjUgMjYuNjY4OEwyMS4yODk1IDI0LjIxMDFaIiBjbGlwLXJ1bGU9ImV2ZW5vZGQiIGZpbGwtcnVsZT0iZXZlbm9kZCIvPiYjeGE7PC9zdmc+;fontSize=16;strokeWidth=0;fontFamily=VK Sans Display;fontSource=https%3A%2F%2Ffonts.googleapis.com%2Fcss%3Ffamily%3DArchitects%2BDaughter;" parent="1" vertex="1">
          <mxGeometry x="40" y="350" width="40" height="40" as="geometry" />
        </mxCell>
        <mxCell id="U4OIBK4hdGN6eQNpAXDu-63" style="edgeStyle=none;shape=connector;rounded=0;orthogonalLoop=1;jettySize=auto;html=1;exitX=0;exitY=0.5;exitDx=0;exitDy=0;entryX=0.5;entryY=0;entryDx=0;entryDy=0;labelBackgroundColor=default;strokeColor=#0d0d0d;strokeWidth=1;align=center;verticalAlign=middle;fontFamily=VK Sans Display;fontSize=11;fontColor=#212121;startArrow=oval;startFill=1;endArrow=oval;endFill=1;" parent="1" source="U4OIBK4hdGN6eQNpAXDu-30" target="U4OIBK4hdGN6eQNpAXDu-1" edge="1">
          <mxGeometry relative="1" as="geometry">
            <Array as="points">
              <mxPoint x="370" y="200" />
            </Array>
          </mxGeometry>
        </mxCell>
        <mxCell id="U4OIBK4hdGN6eQNpAXDu-66" value="eth0" style="edgeLabel;html=1;align=center;verticalAlign=middle;resizable=0;points=[];fontSize=14;fontFamily=VK Sans Display;fontColor=#212121;" parent="U4OIBK4hdGN6eQNpAXDu-63" vertex="1" connectable="0">
          <mxGeometry x="-0.7472" y="-3" relative="1" as="geometry">
            <mxPoint x="7" y="2" as="offset" />
          </mxGeometry>
        </mxCell>
        <mxCell id="U4OIBK4hdGN6eQNpAXDu-30" value="Debian-IPsec-Gate&#xa;StrongSwan" style="shape=image;verticalLabelPosition=bottom;labelBackgroundColor=default;verticalAlign=top;aspect=fixed;imageAspect=0;image=data:image/svg+xml,PHN2ZyB4bWxucz0iaHR0cDovL3d3dy53My5vcmcvMjAwMC9zdmciIGZpbGw9Im5vbmUiIHZpZXdCb3g9IjAgMCAyOCAyOCIgaGVpZ2h0PSIyOCIgd2lkdGg9IjI4Ij4mI3hhOzxwYXRoIGZpbGw9IiMwMDc3RkYiIGQ9Ik0yLjkxNjY2IDE0QzIuOTE2NjYgOC43NzUyNiAyLjkxNjY2IDYuMTYyODkgNC41Mzk3NyA0LjUzOTc3QzYuMTYyODkgMi45MTY2NiA4Ljc3NTI2IDIuOTE2NjYgMTQgMi45MTY2NkMxOS4yMjQ3IDIuOTE2NjYgMjEuODM3MSAyLjkxNjY2IDIzLjQ2MDIgNC41Mzk3N0MyNS4wODMzIDYuMTYyODkgMjUuMDgzMyA4Ljc3NTI2IDI1LjA4MzMgMTRDMjUuMDgzMyAxNS4xNjI2IDI1LjA2MDIgMTYuNDc3NiAyNS4wMzA4IDE3LjUzOThDMjUuMDE1OSAxOC4wNzU5IDI0LjU3NTYgMTguNSAyNC4wMzkzIDE4LjVDMjMuNDczMyAxOC41IDIzLjAxNDkgMTguMDI5MiAyMy4wMTIxIDE3LjQ2MzFDMjMuMDExMSAxNy4yNTUxIDIzLjAwOTIgMTcuMDM4NiAyMy4wMDczIDE2LjgyM0MyMy4wMDQgMTYuNDM5MiAyMy4wMDA3IDE2LjA1ODMgMjMuMDAyMyAxNS43MzM0QzIzLjAwNDIgMTUuMzUwMyAyMi42OTM2IDE1LjAzOTEgMjIuMzEwNiAxNS4wMzkxSDUuNjg5MzlDNS4zMDYzNCAxNS4wMzkxIDQuOTk1NzcgMTUuMzUwMyA0Ljk5NzY4IDE1LjczMzRDNS4wMDY0MiAxNy40ODQzIDUuMDQxMjIgMTguNzc4IDUuMTc5MTQgMTkuODAzOEM1LjM1MTA1IDIxLjA4MjQgNS42NDgxNCAyMS42Mjk3IDYuMDA5MjMgMjEuOTkwN0M2LjM3MDMxIDIyLjM1MTggNi45MTc1NSAyMi42NDg5IDguMTk2MTggMjIuODIwOEM4LjQ0NzY1IDIyLjg1NDYgOC43MTUyMSAyMi44ODIzIDkuMDAxNjUgMjIuOTA0OEM5LjU1ODQxIDIyLjk0ODYgMTAgMjMuNDAzMSAxMCAyMy45NjE2QzEwIDI0LjU1MTEgOS41MDk0IDI1LjAyNjQgOC45MjE1IDI0Ljk4MjZDNi44NjE1MyAyNC44Mjg4IDUuNTIwMTggMjQuNDQwNiA0LjUzOTc3IDIzLjQ2MDJDMi45MTY2NiAyMS44MzcxIDIuOTE2NjYgMTkuMjI0NyAyLjkxNjY2IDE0Wk0yMy4wMDIzIDEyLjI2NjZDMjMuMDA0MiAxMi42NDk2IDIyLjY5MzYgMTIuOTYwOSAyMi4zMTA2IDEyLjk2MDlINS42ODkzOUM1LjMwNjM0IDEyLjk2MDkgNC45OTU3NyAxMi42NDk2IDQuOTk3NjggMTIuMjY2NkM1LjAwNjQyIDEwLjUxNTYgNS4wNDEyMiA5LjIyMjAxIDUuMTc5MTQgOC4xOTYxOEM1LjM1MTA1IDYuOTE3NTUgNS42NDgxNCA2LjM3MDMxIDYuMDA5MjMgNi4wMDkyM0M2LjM3MDMxIDUuNjQ4MTQgNi45MTc1NSA1LjM1MTA1IDguMTk2MTggNS4xNzkxNEM5LjUzNDU5IDQuOTk5MiAxMS4zMjg5IDQuOTk0NzggMTQgNC45OTQ3OEMxNi42NzExIDQuOTk0NzggMTguNDY1NCA0Ljk5OTIgMTkuODAzOCA1LjE3OTE0QzIxLjA4MjQgNS4zNTEwNSAyMS42Mjk3IDUuNjQ4MTQgMjEuOTkwNyA2LjAwOTIzQzIyLjM1MTggNi4zNzAzMSAyMi42NDg5IDYuOTE3NTUgMjIuODIwOCA4LjE5NjE4QzIyLjk1ODggOS4yMjIwMSAyMi45OTM2IDEwLjUxNTYgMjMuMDAyMyAxMi4yNjY2Wk0xNS4xMjQgMjQuNjU4N0wxNi45MTQyIDIwLjQ0MjlDMTYuOTcyNSAyMC4zMTE2IDE3LjA2NzcgMjAuMTUwNSAxNy4yMzIzIDIwLjA0OTZDMTcuMzgzMiAxOS45NTUxIDE3LjU1MTMgMTkuOTI2MyAxNy43MDMyIDE5LjkyNjNDMTcuODM4OCAxOS45MjYzIDE3Ljk4NCAxOS45NTEgMTguMTE5NCAyMC4wMjM3QzE4LjI1NTkgMjAuMDk2OSAxOC4zNTkyIDIwLjIwNjYgMTguNDI3NCAyMC4zMzgxQzE4LjU2OTkgMjAuNTk1MyAxOC41NTExIDIwLjg3MSAxOC40NDA4IDIxLjExM0wxNS45MjI3IDI2Ljg4OTJDMTUuODU4NCAyNy4wMzYxIDE1Ljc2MjEgMjcuMTcwNSAxNS42MjYyIDI3LjI3MjRMMTUuNjIxMiAyNy4yNzYxQzE1LjQ2OTYgMjcuMzg2NCAxNS4yOTYyIDI3LjQyNTYgMTUuMTMyNSAyNy40MjU2QzE0Ljk2NDYgMjcuNDI1NiAxNC43OTgxIDI3LjM4MDkgMTQuNjUxNyAyNy4yNzgxQzE0LjUwODYgMjcuMTc3NiAxNC40MTA4IDI3LjA0MDEgMTQuMzQ1IDI2Ljg5NTJMMTQuMzQyNCAyNi44ODk2TDExLjg0NDcgMjEuMTc4QzExLjc0MTggMjAuOTI4MiAxMS42OTIxIDIwLjYyOSAxMS44MzIxIDIwLjM0ODhDMTEuOTg2NiAyMC4wMzk5IDEyLjI4MzMgMTkuOTI2MyAxMi41NzAzIDE5LjkyNjNDMTIuNzMzIDE5LjkyNjMgMTIuOTAxNCAxOS45NjI4IDEzLjA1MjMgMjAuMDYwNEMxMy4yMDQ1IDIwLjE1ODYgMTMuMzA3MyAyMC4yOTg0IDEzLjM3MTQgMjAuNDUxMkwxMy4zNzE4IDIwLjQ1MjFMMTUuMTI0IDI0LjY1ODdaTTIxLjI4OTUgMjQuMjEwMVYyNi41NTc0QzIxLjI4OTUgMjYuNzkwNCAyMS4yMDUzIDI3LjAwNTEgMjEuMDM3MSAyNy4xNzMzQzIwLjg2ODkgMjcuMzQxNSAyMC42NTQzIDI3LjQyNTYgMjAuNDIxMiAyNy40MjU2QzIwLjE4ODIgMjcuNDI1NiAxOS45NzM1IDI3LjM0MTUgMTkuODA1MyAyNy4xNzMzQzE5LjYzNzEgMjcuMDA1MSAxOS41NTMgMjYuNzkwNCAxOS41NTMgMjYuNTU3NFYyMC43OTQ2QzE5LjU1MyAyMC41NjQxIDE5LjYzMiAyMC4zNDMgMTkuODEwNCAyMC4xNzM1QzE5Ljk3NzkgMjAuMDA4OCAyMC4xOTA1IDE5LjkyNjMgMjAuNDIxMiAxOS45MjYzQzIwLjc1NzcgMTkuOTI2MyAyMS4wMjI3IDIwLjA5OTcgMjEuMTgyMyAyMC4zNzkxTDIxLjE4ODIgMjAuMzg5NUwyMy4zMzQyIDI0LjY4ODNMMjUuNDI0NCAyMC4zOTE0TDI1LjQzMTQgMjAuMzc5MUMyNS41OTExIDIwLjA5OTcgMjUuODU2MSAxOS45MjYzIDI2LjE5MjUgMTkuOTI2M0MyNi40MjMyIDE5LjkyNjMgMjYuNjM1OSAyMC4wMDg4IDI2LjgwMzMgMjAuMTczNkMyNi45ODE4IDIwLjM0MyAyNy4wNjA4IDIwLjU2NDEgMjcuMDYwOCAyMC43OTQ2VjI2LjU1NzRDMjcuMDYwOCAyNi43OTcxIDI2Ljk2ODggMjcuMDEyOCAyNi43OTUxIDI3LjE3ODFDMjYuNjMxOCAyNy4zMzkgMjYuNDIzNiAyNy40MjU2IDI2LjE5MjUgMjcuNDI1NkMyNS45NTk1IDI3LjQyNTYgMjUuNzQ0OCAyNy4zNDE1IDI1LjU3NjYgMjcuMTczM0MyNS40MDg0IDI3LjAwNTEgMjUuMzI0MyAyNi43OTA0IDI1LjMyNDMgMjYuNTU3NFYyNC4xNTg1TDI0LjA2MDUgMjYuNzM0M0wyNC4wNDYyIDI2Ljc1NjJDMjMuODgxMiAyNy4wMDg1IDIzLjYyNzEgMjcuMTcwMiAyMy4zMDY5IDI3LjE3MDJDMjMuMTQ0MyAyNy4xNzAyIDIyLjk4MDQgMjcuMTMxMiAyMi44MzM0IDI3LjAzNjJDMjIuNjg4MyAyNi45NDI1IDIyLjU4NiAyNi44MTE1IDIyLjUxNjUgMjYuNjY4OEwyMS4yODk1IDI0LjIxMDFaIiBjbGlwLXJ1bGU9ImV2ZW5vZGQiIGZpbGwtcnVsZT0iZXZlbm9kZCIvPiYjeGE7PC9zdmc+;fontSize=16;strokeWidth=0;fontFamily=VK Sans Display;fontSource=https%3A%2F%2Ffonts.googleapis.com%2Fcss%3Ffamily%3DArchitects%2BDaughter;" parent="1" vertex="1">
          <mxGeometry x="480" y="180" width="40" height="40" as="geometry" />
        </mxCell>
        <mxCell id="U4OIBK4hdGN6eQNpAXDu-39" value="10.10.2.XXX" style="text;html=1;strokeColor=none;fillColor=none;align=center;verticalAlign=middle;whiteSpace=wrap;rounded=0;fontSize=14;fontFamily=VK Sans Display;fontColor=#0077FF;fontStyle=1" parent="1" vertex="1">
          <mxGeometry x="30" y="410" width="60" height="30" as="geometry" />
        </mxCell>
        <mxCell id="U4OIBK4hdGN6eQNpAXDu-43" value="" style="shape=image;verticalLabelPosition=bottom;labelBackgroundColor=default;verticalAlign=top;aspect=fixed;imageAspect=0;image=data:image/svg+xml,PHN2ZyB4bWxucz0iaHR0cDovL3d3dy53My5vcmcvMjAwMC9zdmciIGZpbGw9Im5vbmUiIHZpZXdCb3g9IjAgMCAyOCAyOCIgaGVpZ2h0PSIyOCIgd2lkdGg9IjI4Ij4mI3hhOzxwYXRoIGZpbGw9IiMwMDc3RkYiIGQ9Ik0yNS4wODMzIDcuMDcyOTRDMjUuMDgzMyA5LjM2ODM3IDIzLjIyMjUgMTEuMjI5MiAyMC45MjcxIDExLjIyOTJDMjAuMzcwOSAxMS4yMjkyIDE5Ljg0MDIgMTEuMTE5OSAxOS4zNTU0IDEwLjkyMTdDMTkuMDUxNyAxMC43OTc2IDE4LjY5MzQgMTAuODQ5MSAxOC40NzQ3IDExLjA5MzdMMTYuMjgzMSAxMy41NDQ2QzE2LjA0OCAxMy44MDc1IDE2LjA0OCAxNC4yMDUxIDE2LjI4MzEgMTQuNDY4TDE4LjQ2NiAxNi45MDk5QzE4LjY4NSAxNy4xNTQ5IDE5LjA0NDEgMTcuMjA2MiAxOS4zNDgyIDE3LjA4MTNDMTkuODM1IDE2Ljg4MTIgMjAuMzY4MSAxNi43NzA5IDIwLjkyNzEgMTYuNzcwOUMyMy4yMjI1IDE2Ljc3MDkgMjUuMDgzMyAxOC42MzE3IDI1LjA4MzMgMjAuOTI3MUMyNS4wODMzIDIzLjIyMjUgMjMuMjIyNSAyNS4wODM0IDIwLjkyNzEgMjUuMDgzNEMxOC42MzE2IDI1LjA4MzQgMTYuNzcwOCAyMy4yMjI1IDE2Ljc3MDggMjAuOTI3MUMxNi43NzA4IDIwLjMyNzYgMTYuODk3OCAxOS43NTc3IDE3LjEyNjIgMTkuMjQyOUMxNy4yNDk1IDE4Ljk2NSAxNy4yMjM1IDE4LjYzNSAxNy4wMjA2IDE4LjQwODZMMTQuMjA2NSAxNS4yNjk0QzE0LjA3NTEgMTUuMTIyOCAxMy44ODc1IDE1LjAzOTEgMTMuNjkwNyAxNS4wMzkxSDExLjYzNTJDMTEuMzE5MSAxNS4wMzkxIDExLjA0ODggMTUuMjU1OCAxMC45MzA5IDE1LjU0OUMxMC4zMTY3IDE3LjA3NzMgOC44MjA4MyAxOC4xNTYzIDcuMDcyOTEgMTguMTU2M0M0Ljc3NzQ3IDE4LjE1NjMgMi45MTY2NiAxNi4yOTU1IDIuOTE2NjYgMTRDMi45MTY2NiAxMS43MDQ2IDQuNzc3NDcgOS44NDM3NyA3LjA3MjkxIDkuODQzNzdDOC44MjA4MyA5Ljg0Mzc3IDEwLjMxNjcgMTAuOTIyOCAxMC45MzA5IDEyLjQ1MUMxMS4wNDg4IDEyLjc0NDMgMTEuMzE5MSAxMi45NjEgMTEuNjM1MiAxMi45NjFIMTMuNjkxNEMxMy44ODc4IDEyLjk2MSAxNC4wNzUgMTIuODc3NiAxNC4yMDY0IDEyLjczMTVMMTcuMDIzMiA5LjYwMDE4QzE3LjIyNzIgOS4zNzM0MiAxNy4yNTMzIDkuMDQyMTIgMTcuMTI5MSA4Ljc2MzU0QzE2Ljg5ODggOC4yNDcwNSAxNi43NzA4IDcuNjc0OTQgMTYuNzcwOCA3LjA3Mjk0QzE2Ljc3MDggNC43Nzc1IDE4LjYzMTYgMi45MTY2OSAyMC45MjcxIDIuOTE2NjlDMjMuMjIyNSAyLjkxNjY5IDI1LjA4MzMgNC43Nzc1IDI1LjA4MzMgNy4wNzI5NFpNMjMuMDA1MiA3LjA3Mjk0QzIzLjAwNTIgOC4yMjA2NSAyMi4wNzQ4IDkuMTUxMDYgMjAuOTI3MSA5LjE1MTA2QzE5Ljc3OTQgOS4xNTEwNiAxOC44NDg5IDguMjIwNjUgMTguODQ4OSA3LjA3Mjk0QzE4Ljg0ODkgNS45MjUyMiAxOS43Nzk0IDQuOTk0ODEgMjAuOTI3MSA0Ljk5NDgxQzIyLjA3NDggNC45OTQ4MSAyMy4wMDUyIDUuOTI1MjIgMjMuMDA1MiA3LjA3Mjk0Wk05LjE1MTAzIDE0QzkuMTUxMDMgMTUuMTQ3NyA4LjIyMDYyIDE2LjA3ODEgNy4wNzI5MSAxNi4wNzgxQzUuOTI1MTkgMTYuMDc4MSA0Ljk5NDc4IDE1LjE0NzcgNC45OTQ3OCAxNEM0Ljk5NDc4IDEyLjg1MjMgNS45MjUxOSAxMS45MjE5IDcuMDcyOTEgMTEuOTIxOUM4LjIyMDYyIDExLjkyMTkgOS4xNTEwMyAxMi44NTIzIDkuMTUxMDMgMTRaTTIwLjkyNzEgMjMuMDA1MkMyMi4wNzQ4IDIzLjAwNTIgMjMuMDA1MiAyMi4wNzQ4IDIzLjAwNTIgMjAuOTI3MUMyMy4wMDUyIDE5Ljc3OTQgMjIuMDc0OCAxOC44NDkgMjAuOTI3MSAxOC44NDlDMTkuNzc5NCAxOC44NDkgMTguODQ4OSAxOS43Nzk0IDE4Ljg0ODkgMjAuOTI3MUMxOC44NDg5IDIyLjA3NDggMTkuNzc5NCAyMy4wMDUyIDIwLjkyNzEgMjMuMDA1MloiIGNsaXAtcnVsZT0iZXZlbm9kZCIgZmlsbC1ydWxlPSJldmVub2RkIi8+JiN4YTs8L3N2Zz4=;direction=south;" parent="1" vertex="1">
          <mxGeometry x="520" y="280" width="20" height="20" as="geometry" />
        </mxCell>
        <mxCell id="U4OIBK4hdGN6eQNpAXDu-47" value="VDI" style="shape=image;verticalLabelPosition=bottom;labelBackgroundColor=default;verticalAlign=top;aspect=fixed;imageAspect=0;image=data:image/svg+xml,PHN2ZyB4bWxucz0iaHR0cDovL3d3dy53My5vcmcvMjAwMC9zdmciIGZpbGw9Im5vbmUiIHZpZXdCb3g9IjAgMCAyOCAyOCIgaGVpZ2h0PSIyOCIgd2lkdGg9IjI4Ij4mI3hhOzxwYXRoIGZpbGw9IiMwMDc3RkYiIGQ9Ik0yLjkxNjY2IDE0QzIuOTE2NjYgOC43NzUyNiAyLjkxNjY2IDYuMTYyODkgNC41Mzk3NyA0LjUzOTc3QzYuMTYyODkgMi45MTY2NiA4Ljc3NTI2IDIuOTE2NjYgMTQgMi45MTY2NkMxOS4yMjQ3IDIuOTE2NjYgMjEuODM3MSAyLjkxNjY2IDIzLjQ2MDIgNC41Mzk3N0MyNS4wODMzIDYuMTYyODkgMjUuMDgzMyA4Ljc3NTI2IDI1LjA4MzMgMTRDMjUuMDgzMyAxNS4xNjI2IDI1LjA2MDIgMTYuNDc3NiAyNS4wMzA4IDE3LjUzOThDMjUuMDE1OSAxOC4wNzU5IDI0LjU3NTYgMTguNSAyNC4wMzkzIDE4LjVDMjMuNDczMyAxOC41IDIzLjAxNDkgMTguMDI5MiAyMy4wMTIxIDE3LjQ2MzFDMjMuMDExMSAxNy4yNTUxIDIzLjAwOTIgMTcuMDM4NiAyMy4wMDczIDE2LjgyM0MyMy4wMDQgMTYuNDM5MiAyMy4wMDA3IDE2LjA1ODMgMjMuMDAyMyAxNS43MzM0QzIzLjAwNDIgMTUuMzUwMyAyMi42OTM2IDE1LjAzOTEgMjIuMzEwNiAxNS4wMzkxSDUuNjg5MzlDNS4zMDYzNCAxNS4wMzkxIDQuOTk1NzcgMTUuMzUwMyA0Ljk5NzY4IDE1LjczMzRDNS4wMDY0MiAxNy40ODQzIDUuMDQxMjIgMTguNzc4IDUuMTc5MTQgMTkuODAzOEM1LjM1MTA1IDIxLjA4MjQgNS42NDgxNCAyMS42Mjk3IDYuMDA5MjMgMjEuOTkwN0M2LjM3MDMxIDIyLjM1MTggNi45MTc1NSAyMi42NDg5IDguMTk2MTggMjIuODIwOEM4LjQ0NzY1IDIyLjg1NDYgOC43MTUyMSAyMi44ODIzIDkuMDAxNjUgMjIuOTA0OEM5LjU1ODQxIDIyLjk0ODYgMTAgMjMuNDAzMSAxMCAyMy45NjE2QzEwIDI0LjU1MTEgOS41MDk0IDI1LjAyNjQgOC45MjE1IDI0Ljk4MjZDNi44NjE1MyAyNC44Mjg4IDUuNTIwMTggMjQuNDQwNiA0LjUzOTc3IDIzLjQ2MDJDMi45MTY2NiAyMS44MzcxIDIuOTE2NjYgMTkuMjI0NyAyLjkxNjY2IDE0Wk0yMy4wMDIzIDEyLjI2NjZDMjMuMDA0MiAxMi42NDk2IDIyLjY5MzYgMTIuOTYwOSAyMi4zMTA2IDEyLjk2MDlINS42ODkzOUM1LjMwNjM0IDEyLjk2MDkgNC45OTU3NyAxMi42NDk2IDQuOTk3NjggMTIuMjY2NkM1LjAwNjQyIDEwLjUxNTYgNS4wNDEyMiA5LjIyMjAxIDUuMTc5MTQgOC4xOTYxOEM1LjM1MTA1IDYuOTE3NTUgNS42NDgxNCA2LjM3MDMxIDYuMDA5MjMgNi4wMDkyM0M2LjM3MDMxIDUuNjQ4MTQgNi45MTc1NSA1LjM1MTA1IDguMTk2MTggNS4xNzkxNEM5LjUzNDU5IDQuOTk5MiAxMS4zMjg5IDQuOTk0NzggMTQgNC45OTQ3OEMxNi42NzExIDQuOTk0NzggMTguNDY1NCA0Ljk5OTIgMTkuODAzOCA1LjE3OTE0QzIxLjA4MjQgNS4zNTEwNSAyMS42Mjk3IDUuNjQ4MTQgMjEuOTkwNyA2LjAwOTIzQzIyLjM1MTggNi4zNzAzMSAyMi42NDg5IDYuOTE3NTUgMjIuODIwOCA4LjE5NjE4QzIyLjk1ODggOS4yMjIwMSAyMi45OTM2IDEwLjUxNTYgMjMuMDAyMyAxMi4yNjY2Wk0xNS4xMjQgMjQuNjU4N0wxNi45MTQyIDIwLjQ0MjlDMTYuOTcyNSAyMC4zMTE2IDE3LjA2NzcgMjAuMTUwNSAxNy4yMzIzIDIwLjA0OTZDMTcuMzgzMiAxOS45NTUxIDE3LjU1MTMgMTkuOTI2MyAxNy43MDMyIDE5LjkyNjNDMTcuODM4OCAxOS45MjYzIDE3Ljk4NCAxOS45NTEgMTguMTE5NCAyMC4wMjM3QzE4LjI1NTkgMjAuMDk2OSAxOC4zNTkyIDIwLjIwNjYgMTguNDI3NCAyMC4zMzgxQzE4LjU2OTkgMjAuNTk1MyAxOC41NTExIDIwLjg3MSAxOC40NDA4IDIxLjExM0wxNS45MjI3IDI2Ljg4OTJDMTUuODU4NCAyNy4wMzYxIDE1Ljc2MjEgMjcuMTcwNSAxNS42MjYyIDI3LjI3MjRMMTUuNjIxMiAyNy4yNzYxQzE1LjQ2OTYgMjcuMzg2NCAxNS4yOTYyIDI3LjQyNTYgMTUuMTMyNSAyNy40MjU2QzE0Ljk2NDYgMjcuNDI1NiAxNC43OTgxIDI3LjM4MDkgMTQuNjUxNyAyNy4yNzgxQzE0LjUwODYgMjcuMTc3NiAxNC40MTA4IDI3LjA0MDEgMTQuMzQ1IDI2Ljg5NTJMMTQuMzQyNCAyNi44ODk2TDExLjg0NDcgMjEuMTc4QzExLjc0MTggMjAuOTI4MiAxMS42OTIxIDIwLjYyOSAxMS44MzIxIDIwLjM0ODhDMTEuOTg2NiAyMC4wMzk5IDEyLjI4MzMgMTkuOTI2MyAxMi41NzAzIDE5LjkyNjNDMTIuNzMzIDE5LjkyNjMgMTIuOTAxNCAxOS45NjI4IDEzLjA1MjMgMjAuMDYwNEMxMy4yMDQ1IDIwLjE1ODYgMTMuMzA3MyAyMC4yOTg0IDEzLjM3MTQgMjAuNDUxMkwxMy4zNzE4IDIwLjQ1MjFMMTUuMTI0IDI0LjY1ODdaTTIxLjI4OTUgMjQuMjEwMVYyNi41NTc0QzIxLjI4OTUgMjYuNzkwNCAyMS4yMDUzIDI3LjAwNTEgMjEuMDM3MSAyNy4xNzMzQzIwLjg2ODkgMjcuMzQxNSAyMC42NTQzIDI3LjQyNTYgMjAuNDIxMiAyNy40MjU2QzIwLjE4ODIgMjcuNDI1NiAxOS45NzM1IDI3LjM0MTUgMTkuODA1MyAyNy4xNzMzQzE5LjYzNzEgMjcuMDA1MSAxOS41NTMgMjYuNzkwNCAxOS41NTMgMjYuNTU3NFYyMC43OTQ2QzE5LjU1MyAyMC41NjQxIDE5LjYzMiAyMC4zNDMgMTkuODEwNCAyMC4xNzM1QzE5Ljk3NzkgMjAuMDA4OCAyMC4xOTA1IDE5LjkyNjMgMjAuNDIxMiAxOS45MjYzQzIwLjc1NzcgMTkuOTI2MyAyMS4wMjI3IDIwLjA5OTcgMjEuMTgyMyAyMC4zNzkxTDIxLjE4ODIgMjAuMzg5NUwyMy4zMzQyIDI0LjY4ODNMMjUuNDI0NCAyMC4zOTE0TDI1LjQzMTQgMjAuMzc5MUMyNS41OTExIDIwLjA5OTcgMjUuODU2MSAxOS45MjYzIDI2LjE5MjUgMTkuOTI2M0MyNi40MjMyIDE5LjkyNjMgMjYuNjM1OSAyMC4wMDg4IDI2LjgwMzMgMjAuMTczNkMyNi45ODE4IDIwLjM0MyAyNy4wNjA4IDIwLjU2NDEgMjcuMDYwOCAyMC43OTQ2VjI2LjU1NzRDMjcuMDYwOCAyNi43OTcxIDI2Ljk2ODggMjcuMDEyOCAyNi43OTUxIDI3LjE3ODFDMjYuNjMxOCAyNy4zMzkgMjYuNDIzNiAyNy40MjU2IDI2LjE5MjUgMjcuNDI1NkMyNS45NTk1IDI3LjQyNTYgMjUuNzQ0OCAyNy4zNDE1IDI1LjU3NjYgMjcuMTczM0MyNS40MDg0IDI3LjAwNTEgMjUuMzI0MyAyNi43OTA0IDI1LjMyNDMgMjYuNTU3NFYyNC4xNTg1TDI0LjA2MDUgMjYuNzM0M0wyNC4wNDYyIDI2Ljc1NjJDMjMuODgxMiAyNy4wMDg1IDIzLjYyNzEgMjcuMTcwMiAyMy4zMDY5IDI3LjE3MDJDMjMuMTQ0MyAyNy4xNzAyIDIyLjk4MDQgMjcuMTMxMiAyMi44MzM0IDI3LjAzNjJDMjIuNjg4MyAyNi45NDI1IDIyLjU4NiAyNi44MTE1IDIyLjUxNjUgMjYuNjY4OEwyMS4yODk1IDI0LjIxMDFaIiBjbGlwLXJ1bGU9ImV2ZW5vZGQiIGZpbGwtcnVsZT0iZXZlbm9kZCIvPiYjeGE7PC9zdmc+;fontSize=16;strokeWidth=0;fontFamily=VK Sans Display;fontSource=https%3A%2F%2Ffonts.googleapis.com%2Fcss%3Ffamily%3DArchitects%2BDaughter;" parent="1" vertex="1">
          <mxGeometry x="780" y="350" width="40" height="40" as="geometry" />
        </mxCell>
        <mxCell id="U4OIBK4hdGN6eQNpAXDu-51" value="" style="shape=image;verticalLabelPosition=bottom;labelBackgroundColor=default;verticalAlign=top;aspect=fixed;imageAspect=0;image=data:image/svg+xml,PHN2ZyB4bWxucz0iaHR0cDovL3d3dy53My5vcmcvMjAwMC9zdmciIGZpbGw9Im5vbmUiIHZpZXdCb3g9IjAgMCAyOCAyOCIgaGVpZ2h0PSIyOCIgd2lkdGg9IjI4Ij4mI3hhOzxwYXRoIGZpbGw9IiMwMDc3RkYiIGQ9Ik0yNS4wODMzIDcuMDcyOTRDMjUuMDgzMyA5LjM2ODM3IDIzLjIyMjUgMTEuMjI5MiAyMC45MjcxIDExLjIyOTJDMjAuMzcwOSAxMS4yMjkyIDE5Ljg0MDIgMTEuMTE5OSAxOS4zNTU0IDEwLjkyMTdDMTkuMDUxNyAxMC43OTc2IDE4LjY5MzQgMTAuODQ5MSAxOC40NzQ3IDExLjA5MzdMMTYuMjgzMSAxMy41NDQ2QzE2LjA0OCAxMy44MDc1IDE2LjA0OCAxNC4yMDUxIDE2LjI4MzEgMTQuNDY4TDE4LjQ2NiAxNi45MDk5QzE4LjY4NSAxNy4xNTQ5IDE5LjA0NDEgMTcuMjA2MiAxOS4zNDgyIDE3LjA4MTNDMTkuODM1IDE2Ljg4MTIgMjAuMzY4MSAxNi43NzA5IDIwLjkyNzEgMTYuNzcwOUMyMy4yMjI1IDE2Ljc3MDkgMjUuMDgzMyAxOC42MzE3IDI1LjA4MzMgMjAuOTI3MUMyNS4wODMzIDIzLjIyMjUgMjMuMjIyNSAyNS4wODM0IDIwLjkyNzEgMjUuMDgzNEMxOC42MzE2IDI1LjA4MzQgMTYuNzcwOCAyMy4yMjI1IDE2Ljc3MDggMjAuOTI3MUMxNi43NzA4IDIwLjMyNzYgMTYuODk3OCAxOS43NTc3IDE3LjEyNjIgMTkuMjQyOUMxNy4yNDk1IDE4Ljk2NSAxNy4yMjM1IDE4LjYzNSAxNy4wMjA2IDE4LjQwODZMMTQuMjA2NSAxNS4yNjk0QzE0LjA3NTEgMTUuMTIyOCAxMy44ODc1IDE1LjAzOTEgMTMuNjkwNyAxNS4wMzkxSDExLjYzNTJDMTEuMzE5MSAxNS4wMzkxIDExLjA0ODggMTUuMjU1OCAxMC45MzA5IDE1LjU0OUMxMC4zMTY3IDE3LjA3NzMgOC44MjA4MyAxOC4xNTYzIDcuMDcyOTEgMTguMTU2M0M0Ljc3NzQ3IDE4LjE1NjMgMi45MTY2NiAxNi4yOTU1IDIuOTE2NjYgMTRDMi45MTY2NiAxMS43MDQ2IDQuNzc3NDcgOS44NDM3NyA3LjA3MjkxIDkuODQzNzdDOC44MjA4MyA5Ljg0Mzc3IDEwLjMxNjcgMTAuOTIyOCAxMC45MzA5IDEyLjQ1MUMxMS4wNDg4IDEyLjc0NDMgMTEuMzE5MSAxMi45NjEgMTEuNjM1MiAxMi45NjFIMTMuNjkxNEMxMy44ODc4IDEyLjk2MSAxNC4wNzUgMTIuODc3NiAxNC4yMDY0IDEyLjczMTVMMTcuMDIzMiA5LjYwMDE4QzE3LjIyNzIgOS4zNzM0MiAxNy4yNTMzIDkuMDQyMTIgMTcuMTI5MSA4Ljc2MzU0QzE2Ljg5ODggOC4yNDcwNSAxNi43NzA4IDcuNjc0OTQgMTYuNzcwOCA3LjA3Mjk0QzE2Ljc3MDggNC43Nzc1IDE4LjYzMTYgMi45MTY2OSAyMC45MjcxIDIuOTE2NjlDMjMuMjIyNSAyLjkxNjY5IDI1LjA4MzMgNC43Nzc1IDI1LjA4MzMgNy4wNzI5NFpNMjMuMDA1MiA3LjA3Mjk0QzIzLjAwNTIgOC4yMjA2NSAyMi4wNzQ4IDkuMTUxMDYgMjAuOTI3MSA5LjE1MTA2QzE5Ljc3OTQgOS4xNTEwNiAxOC44NDg5IDguMjIwNjUgMTguODQ4OSA3LjA3Mjk0QzE4Ljg0ODkgNS45MjUyMiAxOS43Nzk0IDQuOTk0ODEgMjAuOTI3MSA0Ljk5NDgxQzIyLjA3NDggNC45OTQ4MSAyMy4wMDUyIDUuOTI1MjIgMjMuMDA1MiA3LjA3Mjk0Wk05LjE1MTAzIDE0QzkuMTUxMDMgMTUuMTQ3NyA4LjIyMDYyIDE2LjA3ODEgNy4wNzI5MSAxNi4wNzgxQzUuOTI1MTkgMTYuMDc4MSA0Ljk5NDc4IDE1LjE0NzcgNC45OTQ3OCAxNEM0Ljk5NDc4IDEyLjg1MjMgNS45MjUxOSAxMS45MjE5IDcuMDcyOTEgMTEuOTIxOUM4LjIyMDYyIDExLjkyMTkgOS4xNTEwMyAxMi44NTIzIDkuMTUxMDMgMTRaTTIwLjkyNzEgMjMuMDA1MkMyMi4wNzQ4IDIzLjAwNTIgMjMuMDA1MiAyMi4wNzQ4IDIzLjAwNTIgMjAuOTI3MUMyMy4wMDUyIDE5Ljc3OTQgMjIuMDc0OCAxOC44NDkgMjAuOTI3MSAxOC44NDlDMTkuNzc5NCAxOC44NDkgMTguODQ4OSAxOS43Nzk0IDE4Ljg0ODkgMjAuOTI3MUMxOC44NDg5IDIyLjA3NDggMTkuNzc5NCAyMy4wMDUyIDIwLjkyNzEgMjMuMDA1MloiIGNsaXAtcnVsZT0iZXZlbm9kZCIgZmlsbC1ydWxlPSJldmVub2RkIi8+JiN4YTs8L3N2Zz4=;direction=south;" parent="1" vertex="1">
          <mxGeometry x="650" y="345" width="20" height="20" as="geometry" />
        </mxCell>
        <mxCell id="U4OIBK4hdGN6eQNpAXDu-52" value="&lt;font style=&quot;font-size: 14px;&quot; color=&quot;#e188d0&quot;&gt;146.185.241.42&lt;/font&gt;" style="text;html=1;strokeColor=none;fillColor=none;align=center;verticalAlign=middle;whiteSpace=wrap;rounded=0;fontSize=16;fontFamily=VK Sans Display;fontColor=#212121;" parent="1" vertex="1">
          <mxGeometry x="260" y="340" width="60" height="30" as="geometry" />
        </mxCell>
        <mxCell id="U4OIBK4hdGN6eQNpAXDu-53" value="146.185.241.242" style="text;html=1;strokeColor=none;fillColor=none;align=center;verticalAlign=middle;whiteSpace=wrap;rounded=0;fontSize=14;fontFamily=VK Sans Display;fontColor=#E188D0;" parent="1" vertex="1">
          <mxGeometry x="480" y="340" width="60" height="30" as="geometry" />
        </mxCell>
        <mxCell id="U4OIBK4hdGN6eQNpAXDu-62" value="" style="shape=image;verticalLabelPosition=bottom;labelBackgroundColor=default;verticalAlign=top;aspect=fixed;imageAspect=0;image=data:image/svg+xml,PHN2ZyB4bWxucz0iaHR0cDovL3d3dy53My5vcmcvMjAwMC9zdmciIGZpbGw9Im5vbmUiIHZpZXdCb3g9IjAgMCAyOCAyOCIgaGVpZ2h0PSIyOCIgd2lkdGg9IjI4Ij4mI3hhOzxwYXRoIGZpbGw9IiMwMDc3RkYiIGQ9Ik0yNS4wODMzIDcuMDcyOTRDMjUuMDgzMyA5LjM2ODM3IDIzLjIyMjUgMTEuMjI5MiAyMC45MjcxIDExLjIyOTJDMjAuMzcwOSAxMS4yMjkyIDE5Ljg0MDIgMTEuMTE5OSAxOS4zNTU0IDEwLjkyMTdDMTkuMDUxNyAxMC43OTc2IDE4LjY5MzQgMTAuODQ5MSAxOC40NzQ3IDExLjA5MzdMMTYuMjgzMSAxMy41NDQ2QzE2LjA0OCAxMy44MDc1IDE2LjA0OCAxNC4yMDUxIDE2LjI4MzEgMTQuNDY4TDE4LjQ2NiAxNi45MDk5QzE4LjY4NSAxNy4xNTQ5IDE5LjA0NDEgMTcuMjA2MiAxOS4zNDgyIDE3LjA4MTNDMTkuODM1IDE2Ljg4MTIgMjAuMzY4MSAxNi43NzA5IDIwLjkyNzEgMTYuNzcwOUMyMy4yMjI1IDE2Ljc3MDkgMjUuMDgzMyAxOC42MzE3IDI1LjA4MzMgMjAuOTI3MUMyNS4wODMzIDIzLjIyMjUgMjMuMjIyNSAyNS4wODM0IDIwLjkyNzEgMjUuMDgzNEMxOC42MzE2IDI1LjA4MzQgMTYuNzcwOCAyMy4yMjI1IDE2Ljc3MDggMjAuOTI3MUMxNi43NzA4IDIwLjMyNzYgMTYuODk3OCAxOS43NTc3IDE3LjEyNjIgMTkuMjQyOUMxNy4yNDk1IDE4Ljk2NSAxNy4yMjM1IDE4LjYzNSAxNy4wMjA2IDE4LjQwODZMMTQuMjA2NSAxNS4yNjk0QzE0LjA3NTEgMTUuMTIyOCAxMy44ODc1IDE1LjAzOTEgMTMuNjkwNyAxNS4wMzkxSDExLjYzNTJDMTEuMzE5MSAxNS4wMzkxIDExLjA0ODggMTUuMjU1OCAxMC45MzA5IDE1LjU0OUMxMC4zMTY3IDE3LjA3NzMgOC44MjA4MyAxOC4xNTYzIDcuMDcyOTEgMTguMTU2M0M0Ljc3NzQ3IDE4LjE1NjMgMi45MTY2NiAxNi4yOTU1IDIuOTE2NjYgMTRDMi45MTY2NiAxMS43MDQ2IDQuNzc3NDcgOS44NDM3NyA3LjA3MjkxIDkuODQzNzdDOC44MjA4MyA5Ljg0Mzc3IDEwLjMxNjcgMTAuOTIyOCAxMC45MzA5IDEyLjQ1MUMxMS4wNDg4IDEyLjc0NDMgMTEuMzE5MSAxMi45NjEgMTEuNjM1MiAxMi45NjFIMTMuNjkxNEMxMy44ODc4IDEyLjk2MSAxNC4wNzUgMTIuODc3NiAxNC4yMDY0IDEyLjczMTVMMTcuMDIzMiA5LjYwMDE4QzE3LjIyNzIgOS4zNzM0MiAxNy4yNTMzIDkuMDQyMTIgMTcuMTI5MSA4Ljc2MzU0QzE2Ljg5ODggOC4yNDcwNSAxNi43NzA4IDcuNjc0OTQgMTYuNzcwOCA3LjA3Mjk0QzE2Ljc3MDggNC43Nzc1IDE4LjYzMTYgMi45MTY2OSAyMC45MjcxIDIuOTE2NjlDMjMuMjIyNSAyLjkxNjY5IDI1LjA4MzMgNC43Nzc1IDI1LjA4MzMgNy4wNzI5NFpNMjMuMDA1MiA3LjA3Mjk0QzIzLjAwNTIgOC4yMjA2NSAyMi4wNzQ4IDkuMTUxMDYgMjAuOTI3MSA5LjE1MTA2QzE5Ljc3OTQgOS4xNTEwNiAxOC44NDg5IDguMjIwNjUgMTguODQ4OSA3LjA3Mjk0QzE4Ljg0ODkgNS45MjUyMiAxOS43Nzk0IDQuOTk0ODEgMjAuOTI3MSA0Ljk5NDgxQzIyLjA3NDggNC45OTQ4MSAyMy4wMDUyIDUuOTI1MjIgMjMuMDA1MiA3LjA3Mjk0Wk05LjE1MTAzIDE0QzkuMTUxMDMgMTUuMTQ3NyA4LjIyMDYyIDE2LjA3ODEgNy4wNzI5MSAxNi4wNzgxQzUuOTI1MTkgMTYuMDc4MSA0Ljk5NDc4IDE1LjE0NzcgNC45OTQ3OCAxNEM0Ljk5NDc4IDEyLjg1MjMgNS45MjUxOSAxMS45MjE5IDcuMDcyOTEgMTEuOTIxOUM4LjIyMDYyIDExLjkyMTkgOS4xNTEwMyAxMi44NTIzIDkuMTUxMDMgMTRaTTIwLjkyNzEgMjMuMDA1MkMyMi4wNzQ4IDIzLjAwNTIgMjMuMDA1MiAyMi4wNzQ4IDIzLjAwNTIgMjAuOTI3MUMyMy4wMDUyIDE5Ljc3OTQgMjIuMDc0OCAxOC44NDkgMjAuOTI3MSAxOC44NDlDMTkuNzc5NCAxOC44NDkgMTguODQ4OSAxOS43Nzk0IDE4Ljg0ODkgMjAuOTI3MUMxOC44NDg5IDIyLjA3NDggMTkuNzc5NCAyMy4wMDUyIDIwLjkyNzEgMjMuMDA1MloiIGNsaXAtcnVsZT0iZXZlbm9kZCIgZmlsbC1ydWxlPSJldmVub2RkIi8+JiN4YTs8L3N2Zz4=;direction=south;" parent="1" vertex="1">
          <mxGeometry x="96" y="345" width="20" height="20" as="geometry" />
        </mxCell>
        <mxCell id="U4OIBK4hdGN6eQNpAXDu-69" value="10.56.0.4" style="text;html=1;strokeColor=none;fillColor=none;align=center;verticalAlign=middle;whiteSpace=wrap;rounded=0;fontSize=14;fontFamily=VK Sans Display;fontColor=#0077FF;fontStyle=1" parent="1" vertex="1">
          <mxGeometry x="520" y="169" width="60" height="30" as="geometry" />
        </mxCell>
        <mxCell id="U4OIBK4hdGN6eQNpAXDu-70" value="10.56.0.1" style="text;html=1;strokeColor=none;fillColor=none;align=center;verticalAlign=middle;whiteSpace=wrap;rounded=0;fontSize=14;fontFamily=VK Sans Display;fontColor=#0077FF;fontStyle=1" parent="1" vertex="1">
          <mxGeometry x="580" y="320" width="60" height="30" as="geometry" />
        </mxCell>
        <mxCell id="U4OIBK4hdGN6eQNpAXDu-74" value="&lt;font style=&quot;font-size: 14px;&quot; color=&quot;#e188d0&quot;&gt;212.233.72.226&lt;/font&gt;" style="text;html=1;strokeColor=none;fillColor=none;align=center;verticalAlign=middle;whiteSpace=wrap;rounded=0;fontSize=16;fontFamily=VK Sans Display;fontColor=#212121;" parent="1" vertex="1">
          <mxGeometry x="394" y="169" width="60" height="30" as="geometry" />
        </mxCell>
        <mxCell id="U4OIBK4hdGN6eQNpAXDu-80" style="edgeStyle=none;shape=connector;rounded=0;orthogonalLoop=1;jettySize=auto;html=1;exitX=0;exitY=1;exitDx=0;exitDy=0;labelBackgroundColor=default;strokeColor=#7C8A9A;strokeWidth=1;align=center;verticalAlign=middle;fontFamily=VK Sans Display;fontSize=11;fontColor=#212121;startArrow=none;startFill=0;endArrow=none;endFill=0;" parent="1" source="U4OIBK4hdGN6eQNpAXDu-79" target="U4OIBK4hdGN6eQNpAXDu-7" edge="1">
          <mxGeometry relative="1" as="geometry" />
        </mxCell>
        <mxCell id="U4OIBK4hdGN6eQNpAXDu-79" value="&lt;font color=&quot;#212121&quot;&gt;Static route to 10.10.2.0/24 via 10.56.0.4&lt;/font&gt;" style="rounded=1;whiteSpace=wrap;html=1;fontFamily=VK Sans Display;strokeColor=#7C8A9A;arcsize=12;fillColor=#F6F7F9;spacing=0;spacingTop=12;spacingBottom=12;arcSize=12;absoluteArcSize=1;strokeWidth=1;" parent="1" vertex="1">
          <mxGeometry x="640" y="270" width="140" height="40" as="geometry" />
        </mxCell>
      </root>
    </mxGraphModel>
  </diagram>
  <diagram name="Before" id="05NJsNN81IlAcXaDZ-oS">
    <mxGraphModel dx="1020" dy="591" grid="1" gridSize="10" guides="1" tooltips="1" connect="1" arrows="1" fold="1" page="1" pageScale="1" pageWidth="827" pageHeight="1169" math="0" shadow="0">
      <root>
        <mxCell id="7hAxIL8bRP7VP4QoqBMZ-0" />
        <mxCell id="7hAxIL8bRP7VP4QoqBMZ-1" parent="7hAxIL8bRP7VP4QoqBMZ-0" />
        <mxCell id="7hAxIL8bRP7VP4QoqBMZ-38" value="" style="rounded=0;whiteSpace=wrap;html=1;hachureGap=4;fontFamily=VK Sans Display;fontSource=https%3A%2F%2Ffonts.googleapis.com%2Fcss%3Ffamily%3DArchitects%2BDaughter;fontSize=11;fontColor=#212121;fillColor=none;strokeColor=#fafafa;" parent="7hAxIL8bRP7VP4QoqBMZ-1" vertex="1">
          <mxGeometry y="100" width="880" height="350" as="geometry" />
        </mxCell>
        <mxCell id="7hAxIL8bRP7VP4QoqBMZ-2" value="&lt;font style=&quot;font-size: 16px;&quot;&gt;&lt;br&gt;&lt;font style=&quot;font-size: 16px;&quot; face=&quot;VK Sans Display&quot;&gt;&lt;b&gt;LDAP Environment&lt;/b&gt;&lt;/font&gt;&lt;/font&gt;" style="rounded=1;whiteSpace=wrap;html=1;strokeColor=#7C8A9A;strokeWidth=1;fontColor=#212121;fillColor=none;dashed=1;arcSize=12;absoluteArcSize=1;align=center;verticalAlign=top;" parent="7hAxIL8bRP7VP4QoqBMZ-1" vertex="1">
          <mxGeometry x="10" y="110" width="310" height="330" as="geometry" />
        </mxCell>
        <mxCell id="7hAxIL8bRP7VP4QoqBMZ-5" value="&lt;b&gt;&lt;font style=&quot;font-size: 16px;&quot;&gt;&lt;br&gt;VDI Environment&lt;/font&gt;&lt;/b&gt;" style="rounded=1;whiteSpace=wrap;html=1;strokeColor=#7C8A9A;strokeWidth=1;fontColor=#212121;fillColor=none;dashed=1;arcSize=12;absoluteArcSize=1;verticalAlign=top;" parent="7hAxIL8bRP7VP4QoqBMZ-1" vertex="1">
          <mxGeometry x="420" y="110" width="450" height="330" as="geometry" />
        </mxCell>
        <mxCell id="7hAxIL8bRP7VP4QoqBMZ-6" style="edgeStyle=none;shape=connector;rounded=0;orthogonalLoop=1;jettySize=auto;html=1;exitX=0;exitY=0.5;exitDx=0;exitDy=0;entryX=1;entryY=0.5;entryDx=0;entryDy=0;labelBackgroundColor=default;strokeColor=#7C8A9A;strokeWidth=2;align=center;verticalAlign=middle;fontFamily=VK Sans Display;fontSize=11;fontColor=#212121;startArrow=oval;startFill=1;endArrow=oval;endFill=1;" parent="7hAxIL8bRP7VP4QoqBMZ-1" source="7hAxIL8bRP7VP4QoqBMZ-8" target="7hAxIL8bRP7VP4QoqBMZ-13" edge="1">
          <mxGeometry relative="1" as="geometry" />
        </mxCell>
        <mxCell id="7hAxIL8bRP7VP4QoqBMZ-7" style="edgeStyle=none;shape=connector;rounded=0;orthogonalLoop=1;jettySize=auto;html=1;exitX=1;exitY=0.5;exitDx=0;exitDy=0;entryX=0;entryY=0.5;entryDx=0;entryDy=0;labelBackgroundColor=default;strokeColor=#7C8A9A;strokeWidth=2;align=center;verticalAlign=middle;fontFamily=VK Sans Display;fontSize=11;fontColor=#212121;startArrow=oval;startFill=1;endArrow=oval;endFill=1;" parent="7hAxIL8bRP7VP4QoqBMZ-1" source="7hAxIL8bRP7VP4QoqBMZ-8" target="7hAxIL8bRP7VP4QoqBMZ-19" edge="1">
          <mxGeometry relative="1" as="geometry" />
        </mxCell>
        <mxCell id="7hAxIL8bRP7VP4QoqBMZ-8" value="Internet" style="shape=image;verticalLabelPosition=bottom;labelBackgroundColor=default;verticalAlign=top;aspect=fixed;imageAspect=0;image=data:image/svg+xml,PHN2ZyB4bWxucz0iaHR0cDovL3d3dy53My5vcmcvMjAwMC9zdmciIGZpbGw9Im5vbmUiIHZpZXdCb3g9IjAgMCAyOCAyOCIgaGVpZ2h0PSIyOCIgd2lkdGg9IjI4Ij4mI3hhOzxwYXRoIGZpbGw9IiMwMDc3RkYiIGQ9Ik0xNC4wMDI4IDJMMTQgMkM3LjM3MjU4IDIgMiA3LjM3MjU4IDIgMTRDMiAyMC42Mjc0IDcuMzcyNTggMjYgMTQgMjZDMjAuNjI3NCAyNiAyNiAyMC42Mjc0IDI2IDE0QzI2IDcuMzczNSAyMC42Mjg5IDIuMDAxNDkgMTQuMDAyOCAyWk0xNi4zMTM4IDIzLjczMUMxOS4wMjI2IDIzLjA4OTMgMjEuMzA1MiAyMS4zNDU5IDIyLjY2MjIgMTlIMTguMzc4N0MxNy45Nzc5IDIwLjUyODYgMTcuNDI5NiAyMS43OTE0IDE2Ljg3NTYgMjIuNzk1NkMxNi42ODY4IDIzLjEzNzcgMTYuNDk3NyAyMy40NDk0IDE2LjMxMzggMjMuNzMxWk0xOC43ODUzIDE3SDIzLjU0MjJDMjMuODM5NiAxNi4wNTMgMjQgMTUuMDQ1MiAyNCAxNEMyNCAxMi45NTQ4IDIzLjgzOTYgMTEuOTQ3IDIzLjU0MjIgMTFIMTguNzg1M0MxOC45MjE0IDExLjkyNDQgMTkgMTIuOTI0IDE5IDE0QzE5IDE1LjA3NiAxOC45MjE0IDE2LjA3NTYgMTguNzg1MyAxN1pNMTYuNzYxMiAxMUMxNi45MTExIDExLjkwOTcgMTcgMTIuOTA5IDE3IDE0QzE3IDE1LjA5MSAxNi45MTExIDE2LjA5MDMgMTYuNzYxMiAxN0gxMS4yMzg4QzExLjA4ODkgMTYuMDkwMyAxMSAxNS4wOTEgMTEgMTRDMTEgMTIuOTA5IDExLjA4ODkgMTEuOTA5NyAxMS4yMzg4IDExSDE2Ljc2MTJaTTE4LjM3ODcgOUgyMi42NjIyQzIxLjMwNTIgNi42NTQxNCAxOS4wMjI2IDQuOTEwNjkgMTYuMzEzOCA0LjI2OTAzQzE2LjQ5NzcgNC41NTA2NCAxNi42ODY4IDQuODYyMzEgMTYuODc1NiA1LjIwNDQyQzE3LjQyOTYgNi4yMDg2IDE3Ljk3NzkgNy40NzE0NSAxOC4zNzg3IDlaTTExLjY4NjIgNC4yNjkwM0M4Ljk3NzQyIDQuOTEwNjkgNi42OTQ4MyA2LjY1NDE0IDUuMzM3ODIgOUg5LjYyMTMxQzEwLjAyMjEgNy40NzE0NSAxMC41NzA0IDYuMjA4NiAxMS4xMjQ0IDUuMjA0NDJDMTEuMzEzMiA0Ljg2MjMxIDExLjUwMjMgNC41NTA2NCAxMS42ODYyIDQuMjY5MDNaTTExLjY5OCA5QzEyLjAzNTcgNy44Njg2MiAxMi40NTc4IDYuOTI3NzMgMTIuODc1NiA2LjE3MDU4QzEzLjI3OTEgNS40MzkxOCAxMy42ODAxIDQuODc2NjYgMTQgNC40NzgzNkMxNC4zMTk5IDQuODc2NjYgMTQuNzIwOSA1LjQzOTE4IDE1LjEyNDQgNi4xNzA1OEMxNS41NDIyIDYuOTI3NzMgMTUuOTY0MyA3Ljg2ODYyIDE2LjMwMiA5SDExLjY5OFpNOS4yMTQ2OCAxMUg0LjQ1NzhDNC4xNjAzNSAxMS45NDcgNCAxMi45NTQ4IDQgMTRDNCAxNS4wNDUyIDQuMTYwMzUgMTYuMDUzIDQuNDU3OCAxN0g5LjIxNDY4QzkuMDc4NTcgMTYuMDc1NiA5IDE1LjA3NiA5IDE0QzkgMTIuOTI0IDkuMDc4NTcgMTEuOTI0NCA5LjIxNDY4IDExWk05LjYyMTMxIDE5SDUuMzM3ODJDNi42OTQ4MyAyMS4zNDU5IDguOTc3NDIgMjMuMDg5MyAxMS42ODYyIDIzLjczMUMxMS41MDIzIDIzLjQ0OTQgMTEuMzEzMiAyMy4xMzc3IDExLjEyNDQgMjIuNzk1NkMxMC41NzA0IDIxLjc5MTQgMTAuMDIyMSAyMC41Mjg2IDkuNjIxMzEgMTlaTTExLjY5OCAxOUgxNi4zMDJDMTUuOTY0MyAyMC4xMzE0IDE1LjU0MjIgMjEuMDcyMyAxNS4xMjQ0IDIxLjgyOTRDMTQuNzIwOSAyMi41NjA4IDE0LjMxOTkgMjMuMTIzMyAxNCAyMy41MjE2QzEzLjY4MDEgMjMuMTIzMyAxMy4yNzkxIDIyLjU2MDggMTIuODc1NiAyMS44Mjk0QzEyLjQ1NzggMjEuMDcyMyAxMi4wMzU3IDIwLjEzMTQgMTEuNjk4IDE5WiIgY2xpcC1ydWxlPSJldmVub2RkIiBmaWxsLXJ1bGU9ImV2ZW5vZGQiLz4mI3hhOzwvc3ZnPg==;fontSize=16;fontFamily=VK Sans Display;fontSource=https%3A%2F%2Ffonts.googleapis.com%2Fcss%3Ffamily%3DArchitects%2BDaughter;" parent="7hAxIL8bRP7VP4QoqBMZ-1" vertex="1">
          <mxGeometry x="352" y="350" width="40" height="40" as="geometry" />
        </mxCell>
        <mxCell id="7hAxIL8bRP7VP4QoqBMZ-9" style="edgeStyle=none;shape=connector;rounded=0;orthogonalLoop=1;jettySize=auto;html=1;exitX=0;exitY=0.5;exitDx=0;exitDy=0;entryX=1;entryY=0.5;entryDx=0;entryDy=0;labelBackgroundColor=default;strokeColor=#7C8A9A;strokeWidth=2;align=center;verticalAlign=middle;fontFamily=VK Sans Display;fontSize=11;fontColor=#212121;startArrow=oval;startFill=1;endArrow=oval;endFill=1;" parent="7hAxIL8bRP7VP4QoqBMZ-1" source="7hAxIL8bRP7VP4QoqBMZ-13" target="7hAxIL8bRP7VP4QoqBMZ-20" edge="1">
          <mxGeometry relative="1" as="geometry" />
        </mxCell>
        <mxCell id="7hAxIL8bRP7VP4QoqBMZ-10" value="10.10.2.0/24" style="edgeLabel;html=1;align=center;verticalAlign=middle;resizable=0;points=[];fontSize=14;fontFamily=VK Sans Display;fontColor=#212121;" parent="7hAxIL8bRP7VP4QoqBMZ-9" vertex="1" connectable="0">
          <mxGeometry x="0.2839" y="-1" relative="1" as="geometry">
            <mxPoint x="18" y="1" as="offset" />
          </mxGeometry>
        </mxCell>
        <mxCell id="7hAxIL8bRP7VP4QoqBMZ-13" value="priv-router" style="shape=image;verticalLabelPosition=bottom;labelBackgroundColor=default;verticalAlign=top;aspect=fixed;imageAspect=0;image=data:image/svg+xml,PHN2ZyB4bWxucz0iaHR0cDovL3d3dy53My5vcmcvMjAwMC9zdmciIGZpbGw9Im5vbmUiIHZpZXdCb3g9IjAgMCAyOCAyOCIgaGVpZ2h0PSIyOCIgd2lkdGg9IjI4Ij4mI3hhOzxwYXRoIGZpbGw9IiMwMDc3RkYiIGQ9Ik03LjA3MjkxIDExLjIyOTJDOC44NzM1OCAxMS4yMjkyIDEwLjQwNjggMTAuMDg0MSAxMC45ODQxIDguNDgyMzVDMTEuMDYxNCA4LjI2NzcyIDExLjI1NzcgOC4xMTE5OCAxMS40ODU4IDguMTExOThIMTcuNDYzNUMxOC44MDI1IDguMTExOTggMTkuODg4IDkuMTk3NDUgMTkuODg4IDEwLjUzNjVDMTkuODg4IDExLjg3NTUgMTguODAyNSAxMi45NjA5IDE3LjQ2MzUgMTIuOTYwOUgxMC41MzY0QzguMDQ5NzMgMTIuOTYwOSA2LjAzMzg0IDE0Ljk3NjggNi4wMzM4NCAxNy40NjM1QzYuMDMzODQgMTkuOTUwMyA4LjA0OTczIDIxLjk2NjEgMTAuNTM2NCAyMS45NjYxSDE2LjUxNDJDMTYuNzQyMyAyMS45NjYxIDE2LjkzODUgMjIuMTIxOSAxNy4wMTU5IDIyLjMzNjVDMTcuNTkzMiAyMy45MzgyIDE5LjEyNjQgMjUuMDgzMyAyMC45MjcxIDI1LjA4MzNDMjMuMjIyNSAyNS4wODMzIDI1LjA4MzMgMjMuMjIyNSAyNS4wODMzIDIwLjkyNzFDMjUuMDgzMyAxOC42MzE2IDIzLjIyMjUgMTYuNzcwOCAyMC45MjcxIDE2Ljc3MDhDMTkuMTI2NCAxNi43NzA4IDE3LjU5MzIgMTcuOTE1OSAxNy4wMTU5IDE5LjUxNzZDMTYuOTM4NSAxOS43MzIzIDE2Ljc0MjMgMTkuODg4IDE2LjUxNDIgMTkuODg4SDEwLjUzNjRDOS4xOTc0NSAxOS44ODggOC4xMTE5NyAxOC44MDI1IDguMTExOTcgMTcuNDYzNUM4LjExMTk3IDE2LjEyNDUgOS4xOTc0NSAxNS4wMzkxIDEwLjUzNjQgMTUuMDM5MUgxNy40NjM1QzE5Ljk1MDIgMTUuMDM5MSAyMS45NjYxIDEzLjAyMzIgMjEuOTY2MSAxMC41MzY1QzIxLjk2NjEgOC4wNDk3NCAxOS45NTAyIDYuMDMzODUgMTcuNDYzNSA2LjAzMzg1SDExLjQ4NThDMTEuMjU3NyA2LjAzMzg1IDExLjA2MTQgNS44NzgxMSAxMC45ODQxIDUuNjYzNDhDMTAuNDA2OCA0LjA2MTc2IDguODczNTggMi45MTY2NiA3LjA3MjkxIDIuOTE2NjZDNC43Nzc0NyAyLjkxNjY2IDIuOTE2NjYgNC43Nzc0OCAyLjkxNjY2IDcuMDcyOTFDMi45MTY2NiA5LjM2ODM1IDQuNzc3NDcgMTEuMjI5MiA3LjA3MjkxIDExLjIyOTJaTTcuMDcyOTEgOS4xNTEwNEM4LjIyMDYyIDkuMTUxMDQgOS4xNTEwMyA4LjIyMDYzIDkuMTUxMDMgNy4wNzI5MUM5LjE1MTAzIDUuOTI1MiA4LjIyMDYyIDQuOTk0NzkgNy4wNzI5MSA0Ljk5NDc5QzUuOTI1MTkgNC45OTQ3OSA0Ljk5NDc4IDUuOTI1MiA0Ljk5NDc4IDcuMDcyOTFDNC45OTQ3OCA4LjIyMDYzIDUuOTI1MTkgOS4xNTEwNCA3LjA3MjkxIDkuMTUxMDRaTTIzLjAwNTIgMjAuOTI3MUMyMy4wMDUyIDIyLjA3NDggMjIuMDc0OCAyMy4wMDUyIDIwLjkyNzEgMjMuMDA1MkMxOS43Nzk0IDIzLjAwNTIgMTguODQ4OSAyMi4wNzQ4IDE4Ljg0ODkgMjAuOTI3MUMxOC44NDg5IDE5Ljc3OTQgMTkuNzc5NCAxOC44NDkgMjAuOTI3MSAxOC44NDlDMjIuMDc0OCAxOC44NDkgMjMuMDA1MiAxOS43Nzk0IDIzLjAwNTIgMjAuOTI3MVoiIGNsaXAtcnVsZT0iZXZlbm9kZCIgZmlsbC1ydWxlPSJldmVub2RkIi8+JiN4YTs8L3N2Zz4=;fontFamily=VK Sans Display;fontSource=https%3A%2F%2Ffonts.googleapis.com%2Fcss%3Ffamily%3DArchitects%2BDaughter;fontSize=16;" parent="7hAxIL8bRP7VP4QoqBMZ-1" vertex="1">
          <mxGeometry x="210" y="350" width="40" height="40" as="geometry" />
        </mxCell>
        <mxCell id="7hAxIL8bRP7VP4QoqBMZ-14" style="edgeStyle=none;shape=connector;rounded=0;orthogonalLoop=1;jettySize=auto;html=1;exitX=0.5;exitY=0;exitDx=0;exitDy=0;labelBackgroundColor=default;strokeColor=#7C8A9A;strokeWidth=2;align=center;verticalAlign=middle;fontFamily=VK Sans Display;fontSize=11;fontColor=#212121;startArrow=oval;startFill=1;endArrow=oval;endFill=1;" parent="7hAxIL8bRP7VP4QoqBMZ-1" source="7hAxIL8bRP7VP4QoqBMZ-19" edge="1">
          <mxGeometry relative="1" as="geometry">
            <mxPoint x="580" y="200" as="targetPoint" />
            <Array as="points">
              <mxPoint x="580" y="200" />
            </Array>
          </mxGeometry>
        </mxCell>
        <mxCell id="7hAxIL8bRP7VP4QoqBMZ-15" value="10.56.0.0/24" style="edgeLabel;html=1;align=center;verticalAlign=middle;resizable=0;points=[];fontSize=14;fontFamily=VK Sans Display;fontColor=#212121;" parent="7hAxIL8bRP7VP4QoqBMZ-14" vertex="1" connectable="0">
          <mxGeometry x="-0.116" y="3" relative="1" as="geometry">
            <mxPoint x="3" y="-4" as="offset" />
          </mxGeometry>
        </mxCell>
        <mxCell id="7hAxIL8bRP7VP4QoqBMZ-19" value="vdi-router" style="shape=image;verticalLabelPosition=bottom;labelBackgroundColor=default;verticalAlign=top;aspect=fixed;imageAspect=0;image=data:image/svg+xml,PHN2ZyB4bWxucz0iaHR0cDovL3d3dy53My5vcmcvMjAwMC9zdmciIGZpbGw9Im5vbmUiIHZpZXdCb3g9IjAgMCAyOCAyOCIgaGVpZ2h0PSIyOCIgd2lkdGg9IjI4Ij4mI3hhOzxwYXRoIGZpbGw9IiMwMDc3RkYiIGQ9Ik03LjA3MjkxIDExLjIyOTJDOC44NzM1OCAxMS4yMjkyIDEwLjQwNjggMTAuMDg0MSAxMC45ODQxIDguNDgyMzVDMTEuMDYxNCA4LjI2NzcyIDExLjI1NzcgOC4xMTE5OCAxMS40ODU4IDguMTExOThIMTcuNDYzNUMxOC44MDI1IDguMTExOTggMTkuODg4IDkuMTk3NDUgMTkuODg4IDEwLjUzNjVDMTkuODg4IDExLjg3NTUgMTguODAyNSAxMi45NjA5IDE3LjQ2MzUgMTIuOTYwOUgxMC41MzY0QzguMDQ5NzMgMTIuOTYwOSA2LjAzMzg0IDE0Ljk3NjggNi4wMzM4NCAxNy40NjM1QzYuMDMzODQgMTkuOTUwMyA4LjA0OTczIDIxLjk2NjEgMTAuNTM2NCAyMS45NjYxSDE2LjUxNDJDMTYuNzQyMyAyMS45NjYxIDE2LjkzODUgMjIuMTIxOSAxNy4wMTU5IDIyLjMzNjVDMTcuNTkzMiAyMy45MzgyIDE5LjEyNjQgMjUuMDgzMyAyMC45MjcxIDI1LjA4MzNDMjMuMjIyNSAyNS4wODMzIDI1LjA4MzMgMjMuMjIyNSAyNS4wODMzIDIwLjkyNzFDMjUuMDgzMyAxOC42MzE2IDIzLjIyMjUgMTYuNzcwOCAyMC45MjcxIDE2Ljc3MDhDMTkuMTI2NCAxNi43NzA4IDE3LjU5MzIgMTcuOTE1OSAxNy4wMTU5IDE5LjUxNzZDMTYuOTM4NSAxOS43MzIzIDE2Ljc0MjMgMTkuODg4IDE2LjUxNDIgMTkuODg4SDEwLjUzNjRDOS4xOTc0NSAxOS44ODggOC4xMTE5NyAxOC44MDI1IDguMTExOTcgMTcuNDYzNUM4LjExMTk3IDE2LjEyNDUgOS4xOTc0NSAxNS4wMzkxIDEwLjUzNjQgMTUuMDM5MUgxNy40NjM1QzE5Ljk1MDIgMTUuMDM5MSAyMS45NjYxIDEzLjAyMzIgMjEuOTY2MSAxMC41MzY1QzIxLjk2NjEgOC4wNDk3NCAxOS45NTAyIDYuMDMzODUgMTcuNDYzNSA2LjAzMzg1SDExLjQ4NThDMTEuMjU3NyA2LjAzMzg1IDExLjA2MTQgNS44NzgxMSAxMC45ODQxIDUuNjYzNDhDMTAuNDA2OCA0LjA2MTc2IDguODczNTggMi45MTY2NiA3LjA3MjkxIDIuOTE2NjZDNC43Nzc0NyAyLjkxNjY2IDIuOTE2NjYgNC43Nzc0OCAyLjkxNjY2IDcuMDcyOTFDMi45MTY2NiA5LjM2ODM1IDQuNzc3NDcgMTEuMjI5MiA3LjA3MjkxIDExLjIyOTJaTTcuMDcyOTEgOS4xNTEwNEM4LjIyMDYyIDkuMTUxMDQgOS4xNTEwMyA4LjIyMDYzIDkuMTUxMDMgNy4wNzI5MUM5LjE1MTAzIDUuOTI1MiA4LjIyMDYyIDQuOTk0NzkgNy4wNzI5MSA0Ljk5NDc5QzUuOTI1MTkgNC45OTQ3OSA0Ljk5NDc4IDUuOTI1MiA0Ljk5NDc4IDcuMDcyOTFDNC45OTQ3OCA4LjIyMDYzIDUuOTI1MTkgOS4xNTEwNCA3LjA3MjkxIDkuMTUxMDRaTTIzLjAwNTIgMjAuOTI3MUMyMy4wMDUyIDIyLjA3NDggMjIuMDc0OCAyMy4wMDUyIDIwLjkyNzEgMjMuMDA1MkMxOS43Nzk0IDIzLjAwNTIgMTguODQ4OSAyMi4wNzQ4IDE4Ljg0ODkgMjAuOTI3MUMxOC44NDg5IDE5Ljc3OTQgMTkuNzc5NCAxOC44NDkgMjAuOTI3MSAxOC44NDlDMjIuMDc0OCAxOC44NDkgMjMuMDA1MiAxOS43Nzk0IDIzLjAwNTIgMjAuOTI3MVoiIGNsaXAtcnVsZT0iZXZlbm9kZCIgZmlsbC1ydWxlPSJldmVub2RkIi8+JiN4YTs8L3N2Zz4=;fontFamily=VK Sans Display;fontSource=https%3A%2F%2Ffonts.googleapis.com%2Fcss%3Ffamily%3DArchitects%2BDaughter;fontSize=16;" parent="7hAxIL8bRP7VP4QoqBMZ-1" vertex="1">
          <mxGeometry x="560" y="350" width="40" height="40" as="geometry" />
        </mxCell>
        <mxCell id="7hAxIL8bRP7VP4QoqBMZ-20" value="LDAP" style="shape=image;verticalLabelPosition=bottom;labelBackgroundColor=default;verticalAlign=top;aspect=fixed;imageAspect=0;image=data:image/svg+xml,PHN2ZyB4bWxucz0iaHR0cDovL3d3dy53My5vcmcvMjAwMC9zdmciIGZpbGw9Im5vbmUiIHZpZXdCb3g9IjAgMCAyOCAyOCIgaGVpZ2h0PSIyOCIgd2lkdGg9IjI4Ij4mI3hhOzxwYXRoIGZpbGw9IiMwMDc3RkYiIGQ9Ik0yLjkxNjY2IDE0QzIuOTE2NjYgOC43NzUyNiAyLjkxNjY2IDYuMTYyODkgNC41Mzk3NyA0LjUzOTc3QzYuMTYyODkgMi45MTY2NiA4Ljc3NTI2IDIuOTE2NjYgMTQgMi45MTY2NkMxOS4yMjQ3IDIuOTE2NjYgMjEuODM3MSAyLjkxNjY2IDIzLjQ2MDIgNC41Mzk3N0MyNS4wODMzIDYuMTYyODkgMjUuMDgzMyA4Ljc3NTI2IDI1LjA4MzMgMTRDMjUuMDgzMyAxNS4xNjI2IDI1LjA2MDIgMTYuNDc3NiAyNS4wMzA4IDE3LjUzOThDMjUuMDE1OSAxOC4wNzU5IDI0LjU3NTYgMTguNSAyNC4wMzkzIDE4LjVDMjMuNDczMyAxOC41IDIzLjAxNDkgMTguMDI5MiAyMy4wMTIxIDE3LjQ2MzFDMjMuMDExMSAxNy4yNTUxIDIzLjAwOTIgMTcuMDM4NiAyMy4wMDczIDE2LjgyM0MyMy4wMDQgMTYuNDM5MiAyMy4wMDA3IDE2LjA1ODMgMjMuMDAyMyAxNS43MzM0QzIzLjAwNDIgMTUuMzUwMyAyMi42OTM2IDE1LjAzOTEgMjIuMzEwNiAxNS4wMzkxSDUuNjg5MzlDNS4zMDYzNCAxNS4wMzkxIDQuOTk1NzcgMTUuMzUwMyA0Ljk5NzY4IDE1LjczMzRDNS4wMDY0MiAxNy40ODQzIDUuMDQxMjIgMTguNzc4IDUuMTc5MTQgMTkuODAzOEM1LjM1MTA1IDIxLjA4MjQgNS42NDgxNCAyMS42Mjk3IDYuMDA5MjMgMjEuOTkwN0M2LjM3MDMxIDIyLjM1MTggNi45MTc1NSAyMi42NDg5IDguMTk2MTggMjIuODIwOEM4LjQ0NzY1IDIyLjg1NDYgOC43MTUyMSAyMi44ODIzIDkuMDAxNjUgMjIuOTA0OEM5LjU1ODQxIDIyLjk0ODYgMTAgMjMuNDAzMSAxMCAyMy45NjE2QzEwIDI0LjU1MTEgOS41MDk0IDI1LjAyNjQgOC45MjE1IDI0Ljk4MjZDNi44NjE1MyAyNC44Mjg4IDUuNTIwMTggMjQuNDQwNiA0LjUzOTc3IDIzLjQ2MDJDMi45MTY2NiAyMS44MzcxIDIuOTE2NjYgMTkuMjI0NyAyLjkxNjY2IDE0Wk0yMy4wMDIzIDEyLjI2NjZDMjMuMDA0MiAxMi42NDk2IDIyLjY5MzYgMTIuOTYwOSAyMi4zMTA2IDEyLjk2MDlINS42ODkzOUM1LjMwNjM0IDEyLjk2MDkgNC45OTU3NyAxMi42NDk2IDQuOTk3NjggMTIuMjY2NkM1LjAwNjQyIDEwLjUxNTYgNS4wNDEyMiA5LjIyMjAxIDUuMTc5MTQgOC4xOTYxOEM1LjM1MTA1IDYuOTE3NTUgNS42NDgxNCA2LjM3MDMxIDYuMDA5MjMgNi4wMDkyM0M2LjM3MDMxIDUuNjQ4MTQgNi45MTc1NSA1LjM1MTA1IDguMTk2MTggNS4xNzkxNEM5LjUzNDU5IDQuOTk5MiAxMS4zMjg5IDQuOTk0NzggMTQgNC45OTQ3OEMxNi42NzExIDQuOTk0NzggMTguNDY1NCA0Ljk5OTIgMTkuODAzOCA1LjE3OTE0QzIxLjA4MjQgNS4zNTEwNSAyMS42Mjk3IDUuNjQ4MTQgMjEuOTkwNyA2LjAwOTIzQzIyLjM1MTggNi4zNzAzMSAyMi42NDg5IDYuOTE3NTUgMjIuODIwOCA4LjE5NjE4QzIyLjk1ODggOS4yMjIwMSAyMi45OTM2IDEwLjUxNTYgMjMuMDAyMyAxMi4yNjY2Wk0xNS4xMjQgMjQuNjU4N0wxNi45MTQyIDIwLjQ0MjlDMTYuOTcyNSAyMC4zMTE2IDE3LjA2NzcgMjAuMTUwNSAxNy4yMzIzIDIwLjA0OTZDMTcuMzgzMiAxOS45NTUxIDE3LjU1MTMgMTkuOTI2MyAxNy43MDMyIDE5LjkyNjNDMTcuODM4OCAxOS45MjYzIDE3Ljk4NCAxOS45NTEgMTguMTE5NCAyMC4wMjM3QzE4LjI1NTkgMjAuMDk2OSAxOC4zNTkyIDIwLjIwNjYgMTguNDI3NCAyMC4zMzgxQzE4LjU2OTkgMjAuNTk1MyAxOC41NTExIDIwLjg3MSAxOC40NDA4IDIxLjExM0wxNS45MjI3IDI2Ljg4OTJDMTUuODU4NCAyNy4wMzYxIDE1Ljc2MjEgMjcuMTcwNSAxNS42MjYyIDI3LjI3MjRMMTUuNjIxMiAyNy4yNzYxQzE1LjQ2OTYgMjcuMzg2NCAxNS4yOTYyIDI3LjQyNTYgMTUuMTMyNSAyNy40MjU2QzE0Ljk2NDYgMjcuNDI1NiAxNC43OTgxIDI3LjM4MDkgMTQuNjUxNyAyNy4yNzgxQzE0LjUwODYgMjcuMTc3NiAxNC40MTA4IDI3LjA0MDEgMTQuMzQ1IDI2Ljg5NTJMMTQuMzQyNCAyNi44ODk2TDExLjg0NDcgMjEuMTc4QzExLjc0MTggMjAuOTI4MiAxMS42OTIxIDIwLjYyOSAxMS44MzIxIDIwLjM0ODhDMTEuOTg2NiAyMC4wMzk5IDEyLjI4MzMgMTkuOTI2MyAxMi41NzAzIDE5LjkyNjNDMTIuNzMzIDE5LjkyNjMgMTIuOTAxNCAxOS45NjI4IDEzLjA1MjMgMjAuMDYwNEMxMy4yMDQ1IDIwLjE1ODYgMTMuMzA3MyAyMC4yOTg0IDEzLjM3MTQgMjAuNDUxMkwxMy4zNzE4IDIwLjQ1MjFMMTUuMTI0IDI0LjY1ODdaTTIxLjI4OTUgMjQuMjEwMVYyNi41NTc0QzIxLjI4OTUgMjYuNzkwNCAyMS4yMDUzIDI3LjAwNTEgMjEuMDM3MSAyNy4xNzMzQzIwLjg2ODkgMjcuMzQxNSAyMC42NTQzIDI3LjQyNTYgMjAuNDIxMiAyNy40MjU2QzIwLjE4ODIgMjcuNDI1NiAxOS45NzM1IDI3LjM0MTUgMTkuODA1MyAyNy4xNzMzQzE5LjYzNzEgMjcuMDA1MSAxOS41NTMgMjYuNzkwNCAxOS41NTMgMjYuNTU3NFYyMC43OTQ2QzE5LjU1MyAyMC41NjQxIDE5LjYzMiAyMC4zNDMgMTkuODEwNCAyMC4xNzM1QzE5Ljk3NzkgMjAuMDA4OCAyMC4xOTA1IDE5LjkyNjMgMjAuNDIxMiAxOS45MjYzQzIwLjc1NzcgMTkuOTI2MyAyMS4wMjI3IDIwLjA5OTcgMjEuMTgyMyAyMC4zNzkxTDIxLjE4ODIgMjAuMzg5NUwyMy4zMzQyIDI0LjY4ODNMMjUuNDI0NCAyMC4zOTE0TDI1LjQzMTQgMjAuMzc5MUMyNS41OTExIDIwLjA5OTcgMjUuODU2MSAxOS45MjYzIDI2LjE5MjUgMTkuOTI2M0MyNi40MjMyIDE5LjkyNjMgMjYuNjM1OSAyMC4wMDg4IDI2LjgwMzMgMjAuMTczNkMyNi45ODE4IDIwLjM0MyAyNy4wNjA4IDIwLjU2NDEgMjcuMDYwOCAyMC43OTQ2VjI2LjU1NzRDMjcuMDYwOCAyNi43OTcxIDI2Ljk2ODggMjcuMDEyOCAyNi43OTUxIDI3LjE3ODFDMjYuNjMxOCAyNy4zMzkgMjYuNDIzNiAyNy40MjU2IDI2LjE5MjUgMjcuNDI1NkMyNS45NTk1IDI3LjQyNTYgMjUuNzQ0OCAyNy4zNDE1IDI1LjU3NjYgMjcuMTczM0MyNS40MDg0IDI3LjAwNTEgMjUuMzI0MyAyNi43OTA0IDI1LjMyNDMgMjYuNTU3NFYyNC4xNTg1TDI0LjA2MDUgMjYuNzM0M0wyNC4wNDYyIDI2Ljc1NjJDMjMuODgxMiAyNy4wMDg1IDIzLjYyNzEgMjcuMTcwMiAyMy4zMDY5IDI3LjE3MDJDMjMuMTQ0MyAyNy4xNzAyIDIyLjk4MDQgMjcuMTMxMiAyMi44MzM0IDI3LjAzNjJDMjIuNjg4MyAyNi45NDI1IDIyLjU4NiAyNi44MTE1IDIyLjUxNjUgMjYuNjY4OEwyMS4yODk1IDI0LjIxMDFaIiBjbGlwLXJ1bGU9ImV2ZW5vZGQiIGZpbGwtcnVsZT0iZXZlbm9kZCIvPiYjeGE7PC9zdmc+;fontSize=16;strokeWidth=0;fontFamily=VK Sans Display;fontSource=https%3A%2F%2Ffonts.googleapis.com%2Fcss%3Ffamily%3DArchitects%2BDaughter;" parent="7hAxIL8bRP7VP4QoqBMZ-1" vertex="1">
          <mxGeometry x="40" y="350" width="40" height="40" as="geometry" />
        </mxCell>
        <mxCell id="7hAxIL8bRP7VP4QoqBMZ-24" value="10.10.2.XXX" style="text;html=1;strokeColor=none;fillColor=none;align=center;verticalAlign=middle;whiteSpace=wrap;rounded=0;fontSize=14;fontFamily=VK Sans Display;fontColor=#0077FF;fontStyle=1" parent="7hAxIL8bRP7VP4QoqBMZ-1" vertex="1">
          <mxGeometry x="30" y="410" width="60" height="30" as="geometry" />
        </mxCell>
        <mxCell id="7hAxIL8bRP7VP4QoqBMZ-25" value="" style="shape=image;verticalLabelPosition=bottom;labelBackgroundColor=default;verticalAlign=top;aspect=fixed;imageAspect=0;image=data:image/svg+xml,PHN2ZyB4bWxucz0iaHR0cDovL3d3dy53My5vcmcvMjAwMC9zdmciIGZpbGw9Im5vbmUiIHZpZXdCb3g9IjAgMCAyOCAyOCIgaGVpZ2h0PSIyOCIgd2lkdGg9IjI4Ij4mI3hhOzxwYXRoIGZpbGw9IiMwMDc3RkYiIGQ9Ik0yNS4wODMzIDcuMDcyOTRDMjUuMDgzMyA5LjM2ODM3IDIzLjIyMjUgMTEuMjI5MiAyMC45MjcxIDExLjIyOTJDMjAuMzcwOSAxMS4yMjkyIDE5Ljg0MDIgMTEuMTE5OSAxOS4zNTU0IDEwLjkyMTdDMTkuMDUxNyAxMC43OTc2IDE4LjY5MzQgMTAuODQ5MSAxOC40NzQ3IDExLjA5MzdMMTYuMjgzMSAxMy41NDQ2QzE2LjA0OCAxMy44MDc1IDE2LjA0OCAxNC4yMDUxIDE2LjI4MzEgMTQuNDY4TDE4LjQ2NiAxNi45MDk5QzE4LjY4NSAxNy4xNTQ5IDE5LjA0NDEgMTcuMjA2MiAxOS4zNDgyIDE3LjA4MTNDMTkuODM1IDE2Ljg4MTIgMjAuMzY4MSAxNi43NzA5IDIwLjkyNzEgMTYuNzcwOUMyMy4yMjI1IDE2Ljc3MDkgMjUuMDgzMyAxOC42MzE3IDI1LjA4MzMgMjAuOTI3MUMyNS4wODMzIDIzLjIyMjUgMjMuMjIyNSAyNS4wODM0IDIwLjkyNzEgMjUuMDgzNEMxOC42MzE2IDI1LjA4MzQgMTYuNzcwOCAyMy4yMjI1IDE2Ljc3MDggMjAuOTI3MUMxNi43NzA4IDIwLjMyNzYgMTYuODk3OCAxOS43NTc3IDE3LjEyNjIgMTkuMjQyOUMxNy4yNDk1IDE4Ljk2NSAxNy4yMjM1IDE4LjYzNSAxNy4wMjA2IDE4LjQwODZMMTQuMjA2NSAxNS4yNjk0QzE0LjA3NTEgMTUuMTIyOCAxMy44ODc1IDE1LjAzOTEgMTMuNjkwNyAxNS4wMzkxSDExLjYzNTJDMTEuMzE5MSAxNS4wMzkxIDExLjA0ODggMTUuMjU1OCAxMC45MzA5IDE1LjU0OUMxMC4zMTY3IDE3LjA3NzMgOC44MjA4MyAxOC4xNTYzIDcuMDcyOTEgMTguMTU2M0M0Ljc3NzQ3IDE4LjE1NjMgMi45MTY2NiAxNi4yOTU1IDIuOTE2NjYgMTRDMi45MTY2NiAxMS43MDQ2IDQuNzc3NDcgOS44NDM3NyA3LjA3MjkxIDkuODQzNzdDOC44MjA4MyA5Ljg0Mzc3IDEwLjMxNjcgMTAuOTIyOCAxMC45MzA5IDEyLjQ1MUMxMS4wNDg4IDEyLjc0NDMgMTEuMzE5MSAxMi45NjEgMTEuNjM1MiAxMi45NjFIMTMuNjkxNEMxMy44ODc4IDEyLjk2MSAxNC4wNzUgMTIuODc3NiAxNC4yMDY0IDEyLjczMTVMMTcuMDIzMiA5LjYwMDE4QzE3LjIyNzIgOS4zNzM0MiAxNy4yNTMzIDkuMDQyMTIgMTcuMTI5MSA4Ljc2MzU0QzE2Ljg5ODggOC4yNDcwNSAxNi43NzA4IDcuNjc0OTQgMTYuNzcwOCA3LjA3Mjk0QzE2Ljc3MDggNC43Nzc1IDE4LjYzMTYgMi45MTY2OSAyMC45MjcxIDIuOTE2NjlDMjMuMjIyNSAyLjkxNjY5IDI1LjA4MzMgNC43Nzc1IDI1LjA4MzMgNy4wNzI5NFpNMjMuMDA1MiA3LjA3Mjk0QzIzLjAwNTIgOC4yMjA2NSAyMi4wNzQ4IDkuMTUxMDYgMjAuOTI3MSA5LjE1MTA2QzE5Ljc3OTQgOS4xNTEwNiAxOC44NDg5IDguMjIwNjUgMTguODQ4OSA3LjA3Mjk0QzE4Ljg0ODkgNS45MjUyMiAxOS43Nzk0IDQuOTk0ODEgMjAuOTI3MSA0Ljk5NDgxQzIyLjA3NDggNC45OTQ4MSAyMy4wMDUyIDUuOTI1MjIgMjMuMDA1MiA3LjA3Mjk0Wk05LjE1MTAzIDE0QzkuMTUxMDMgMTUuMTQ3NyA4LjIyMDYyIDE2LjA3ODEgNy4wNzI5MSAxNi4wNzgxQzUuOTI1MTkgMTYuMDc4MSA0Ljk5NDc4IDE1LjE0NzcgNC45OTQ3OCAxNEM0Ljk5NDc4IDEyLjg1MjMgNS45MjUxOSAxMS45MjE5IDcuMDcyOTEgMTEuOTIxOUM4LjIyMDYyIDExLjkyMTkgOS4xNTEwMyAxMi44NTIzIDkuMTUxMDMgMTRaTTIwLjkyNzEgMjMuMDA1MkMyMi4wNzQ4IDIzLjAwNTIgMjMuMDA1MiAyMi4wNzQ4IDIzLjAwNTIgMjAuOTI3MUMyMy4wMDUyIDE5Ljc3OTQgMjIuMDc0OCAxOC44NDkgMjAuOTI3MSAxOC44NDlDMTkuNzc5NCAxOC44NDkgMTguODQ4OSAxOS43Nzk0IDE4Ljg0ODkgMjAuOTI3MUMxOC44NDg5IDIyLjA3NDggMTkuNzc5NCAyMy4wMDUyIDIwLjkyNzEgMjMuMDA1MloiIGNsaXAtcnVsZT0iZXZlbm9kZCIgZmlsbC1ydWxlPSJldmVub2RkIi8+JiN4YTs8L3N2Zz4=;direction=south;" parent="7hAxIL8bRP7VP4QoqBMZ-1" vertex="1">
          <mxGeometry x="520" y="263" width="20" height="20" as="geometry" />
        </mxCell>
        <mxCell id="7hAxIL8bRP7VP4QoqBMZ-27" value="" style="shape=image;verticalLabelPosition=bottom;labelBackgroundColor=default;verticalAlign=top;aspect=fixed;imageAspect=0;image=data:image/svg+xml,PHN2ZyB4bWxucz0iaHR0cDovL3d3dy53My5vcmcvMjAwMC9zdmciIGZpbGw9Im5vbmUiIHZpZXdCb3g9IjAgMCAyOCAyOCIgaGVpZ2h0PSIyOCIgd2lkdGg9IjI4Ij4mI3hhOzxwYXRoIGZpbGw9IiMwMDc3RkYiIGQ9Ik0yNS4wODMzIDcuMDcyOTRDMjUuMDgzMyA5LjM2ODM3IDIzLjIyMjUgMTEuMjI5MiAyMC45MjcxIDExLjIyOTJDMjAuMzcwOSAxMS4yMjkyIDE5Ljg0MDIgMTEuMTE5OSAxOS4zNTU0IDEwLjkyMTdDMTkuMDUxNyAxMC43OTc2IDE4LjY5MzQgMTAuODQ5MSAxOC40NzQ3IDExLjA5MzdMMTYuMjgzMSAxMy41NDQ2QzE2LjA0OCAxMy44MDc1IDE2LjA0OCAxNC4yMDUxIDE2LjI4MzEgMTQuNDY4TDE4LjQ2NiAxNi45MDk5QzE4LjY4NSAxNy4xNTQ5IDE5LjA0NDEgMTcuMjA2MiAxOS4zNDgyIDE3LjA4MTNDMTkuODM1IDE2Ljg4MTIgMjAuMzY4MSAxNi43NzA5IDIwLjkyNzEgMTYuNzcwOUMyMy4yMjI1IDE2Ljc3MDkgMjUuMDgzMyAxOC42MzE3IDI1LjA4MzMgMjAuOTI3MUMyNS4wODMzIDIzLjIyMjUgMjMuMjIyNSAyNS4wODM0IDIwLjkyNzEgMjUuMDgzNEMxOC42MzE2IDI1LjA4MzQgMTYuNzcwOCAyMy4yMjI1IDE2Ljc3MDggMjAuOTI3MUMxNi43NzA4IDIwLjMyNzYgMTYuODk3OCAxOS43NTc3IDE3LjEyNjIgMTkuMjQyOUMxNy4yNDk1IDE4Ljk2NSAxNy4yMjM1IDE4LjYzNSAxNy4wMjA2IDE4LjQwODZMMTQuMjA2NSAxNS4yNjk0QzE0LjA3NTEgMTUuMTIyOCAxMy44ODc1IDE1LjAzOTEgMTMuNjkwNyAxNS4wMzkxSDExLjYzNTJDMTEuMzE5MSAxNS4wMzkxIDExLjA0ODggMTUuMjU1OCAxMC45MzA5IDE1LjU0OUMxMC4zMTY3IDE3LjA3NzMgOC44MjA4MyAxOC4xNTYzIDcuMDcyOTEgMTguMTU2M0M0Ljc3NzQ3IDE4LjE1NjMgMi45MTY2NiAxNi4yOTU1IDIuOTE2NjYgMTRDMi45MTY2NiAxMS43MDQ2IDQuNzc3NDcgOS44NDM3NyA3LjA3MjkxIDkuODQzNzdDOC44MjA4MyA5Ljg0Mzc3IDEwLjMxNjcgMTAuOTIyOCAxMC45MzA5IDEyLjQ1MUMxMS4wNDg4IDEyLjc0NDMgMTEuMzE5MSAxMi45NjEgMTEuNjM1MiAxMi45NjFIMTMuNjkxNEMxMy44ODc4IDEyLjk2MSAxNC4wNzUgMTIuODc3NiAxNC4yMDY0IDEyLjczMTVMMTcuMDIzMiA5LjYwMDE4QzE3LjIyNzIgOS4zNzM0MiAxNy4yNTMzIDkuMDQyMTIgMTcuMTI5MSA4Ljc2MzU0QzE2Ljg5ODggOC4yNDcwNSAxNi43NzA4IDcuNjc0OTQgMTYuNzcwOCA3LjA3Mjk0QzE2Ljc3MDggNC43Nzc1IDE4LjYzMTYgMi45MTY2OSAyMC45MjcxIDIuOTE2NjlDMjMuMjIyNSAyLjkxNjY5IDI1LjA4MzMgNC43Nzc1IDI1LjA4MzMgNy4wNzI5NFpNMjMuMDA1MiA3LjA3Mjk0QzIzLjAwNTIgOC4yMjA2NSAyMi4wNzQ4IDkuMTUxMDYgMjAuOTI3MSA5LjE1MTA2QzE5Ljc3OTQgOS4xNTEwNiAxOC44NDg5IDguMjIwNjUgMTguODQ4OSA3LjA3Mjk0QzE4Ljg0ODkgNS45MjUyMiAxOS43Nzk0IDQuOTk0ODEgMjAuOTI3MSA0Ljk5NDgxQzIyLjA3NDggNC45OTQ4MSAyMy4wMDUyIDUuOTI1MjIgMjMuMDA1MiA3LjA3Mjk0Wk05LjE1MTAzIDE0QzkuMTUxMDMgMTUuMTQ3NyA4LjIyMDYyIDE2LjA3ODEgNy4wNzI5MSAxNi4wNzgxQzUuOTI1MTkgMTYuMDc4MSA0Ljk5NDc4IDE1LjE0NzcgNC45OTQ3OCAxNEM0Ljk5NDc4IDEyLjg1MjMgNS45MjUxOSAxMS45MjE5IDcuMDcyOTEgMTEuOTIxOUM4LjIyMDYyIDExLjkyMTkgOS4xNTEwMyAxMi44NTIzIDkuMTUxMDMgMTRaTTIwLjkyNzEgMjMuMDA1MkMyMi4wNzQ4IDIzLjAwNTIgMjMuMDA1MiAyMi4wNzQ4IDIzLjAwNTIgMjAuOTI3MUMyMy4wMDUyIDE5Ljc3OTQgMjIuMDc0OCAxOC44NDkgMjAuOTI3MSAxOC44NDlDMTkuNzc5NCAxOC44NDkgMTguODQ4OSAxOS43Nzk0IDE4Ljg0ODkgMjAuOTI3MUMxOC44NDg5IDIyLjA3NDggMTkuNzc5NCAyMy4wMDUyIDIwLjkyNzEgMjMuMDA1MloiIGNsaXAtcnVsZT0iZXZlbm9kZCIgZmlsbC1ydWxlPSJldmVub2RkIi8+JiN4YTs8L3N2Zz4=;direction=south;" parent="7hAxIL8bRP7VP4QoqBMZ-1" vertex="1">
          <mxGeometry x="650" y="345" width="20" height="20" as="geometry" />
        </mxCell>
        <mxCell id="7hAxIL8bRP7VP4QoqBMZ-28" value="&lt;font style=&quot;font-size: 14px;&quot; color=&quot;#e188d0&quot;&gt;146.185.241.42&lt;/font&gt;" style="text;html=1;strokeColor=none;fillColor=none;align=center;verticalAlign=middle;whiteSpace=wrap;rounded=0;fontSize=16;fontFamily=VK Sans Display;fontColor=#212121;" parent="7hAxIL8bRP7VP4QoqBMZ-1" vertex="1">
          <mxGeometry x="260" y="340" width="60" height="30" as="geometry" />
        </mxCell>
        <mxCell id="7hAxIL8bRP7VP4QoqBMZ-29" value="146.185.241.242" style="text;html=1;strokeColor=none;fillColor=none;align=center;verticalAlign=middle;whiteSpace=wrap;rounded=0;fontSize=14;fontFamily=VK Sans Display;fontColor=#E188D0;" parent="7hAxIL8bRP7VP4QoqBMZ-1" vertex="1">
          <mxGeometry x="480" y="340" width="60" height="30" as="geometry" />
        </mxCell>
        <mxCell id="7hAxIL8bRP7VP4QoqBMZ-30" value="" style="shape=image;verticalLabelPosition=bottom;labelBackgroundColor=default;verticalAlign=top;aspect=fixed;imageAspect=0;image=data:image/svg+xml,PHN2ZyB4bWxucz0iaHR0cDovL3d3dy53My5vcmcvMjAwMC9zdmciIGZpbGw9Im5vbmUiIHZpZXdCb3g9IjAgMCAyOCAyOCIgaGVpZ2h0PSIyOCIgd2lkdGg9IjI4Ij4mI3hhOzxwYXRoIGZpbGw9IiMwMDc3RkYiIGQ9Ik0yNS4wODMzIDcuMDcyOTRDMjUuMDgzMyA5LjM2ODM3IDIzLjIyMjUgMTEuMjI5MiAyMC45MjcxIDExLjIyOTJDMjAuMzcwOSAxMS4yMjkyIDE5Ljg0MDIgMTEuMTE5OSAxOS4zNTU0IDEwLjkyMTdDMTkuMDUxNyAxMC43OTc2IDE4LjY5MzQgMTAuODQ5MSAxOC40NzQ3IDExLjA5MzdMMTYuMjgzMSAxMy41NDQ2QzE2LjA0OCAxMy44MDc1IDE2LjA0OCAxNC4yMDUxIDE2LjI4MzEgMTQuNDY4TDE4LjQ2NiAxNi45MDk5QzE4LjY4NSAxNy4xNTQ5IDE5LjA0NDEgMTcuMjA2MiAxOS4zNDgyIDE3LjA4MTNDMTkuODM1IDE2Ljg4MTIgMjAuMzY4MSAxNi43NzA5IDIwLjkyNzEgMTYuNzcwOUMyMy4yMjI1IDE2Ljc3MDkgMjUuMDgzMyAxOC42MzE3IDI1LjA4MzMgMjAuOTI3MUMyNS4wODMzIDIzLjIyMjUgMjMuMjIyNSAyNS4wODM0IDIwLjkyNzEgMjUuMDgzNEMxOC42MzE2IDI1LjA4MzQgMTYuNzcwOCAyMy4yMjI1IDE2Ljc3MDggMjAuOTI3MUMxNi43NzA4IDIwLjMyNzYgMTYuODk3OCAxOS43NTc3IDE3LjEyNjIgMTkuMjQyOUMxNy4yNDk1IDE4Ljk2NSAxNy4yMjM1IDE4LjYzNSAxNy4wMjA2IDE4LjQwODZMMTQuMjA2NSAxNS4yNjk0QzE0LjA3NTEgMTUuMTIyOCAxMy44ODc1IDE1LjAzOTEgMTMuNjkwNyAxNS4wMzkxSDExLjYzNTJDMTEuMzE5MSAxNS4wMzkxIDExLjA0ODggMTUuMjU1OCAxMC45MzA5IDE1LjU0OUMxMC4zMTY3IDE3LjA3NzMgOC44MjA4MyAxOC4xNTYzIDcuMDcyOTEgMTguMTU2M0M0Ljc3NzQ3IDE4LjE1NjMgMi45MTY2NiAxNi4yOTU1IDIuOTE2NjYgMTRDMi45MTY2NiAxMS43MDQ2IDQuNzc3NDcgOS44NDM3NyA3LjA3MjkxIDkuODQzNzdDOC44MjA4MyA5Ljg0Mzc3IDEwLjMxNjcgMTAuOTIyOCAxMC45MzA5IDEyLjQ1MUMxMS4wNDg4IDEyLjc0NDMgMTEuMzE5MSAxMi45NjEgMTEuNjM1MiAxMi45NjFIMTMuNjkxNEMxMy44ODc4IDEyLjk2MSAxNC4wNzUgMTIuODc3NiAxNC4yMDY0IDEyLjczMTVMMTcuMDIzMiA5LjYwMDE4QzE3LjIyNzIgOS4zNzM0MiAxNy4yNTMzIDkuMDQyMTIgMTcuMTI5MSA4Ljc2MzU0QzE2Ljg5ODggOC4yNDcwNSAxNi43NzA4IDcuNjc0OTQgMTYuNzcwOCA3LjA3Mjk0QzE2Ljc3MDggNC43Nzc1IDE4LjYzMTYgMi45MTY2OSAyMC45MjcxIDIuOTE2NjlDMjMuMjIyNSAyLjkxNjY5IDI1LjA4MzMgNC43Nzc1IDI1LjA4MzMgNy4wNzI5NFpNMjMuMDA1MiA3LjA3Mjk0QzIzLjAwNTIgOC4yMjA2NSAyMi4wNzQ4IDkuMTUxMDYgMjAuOTI3MSA5LjE1MTA2QzE5Ljc3OTQgOS4xNTEwNiAxOC44NDg5IDguMjIwNjUgMTguODQ4OSA3LjA3Mjk0QzE4Ljg0ODkgNS45MjUyMiAxOS43Nzk0IDQuOTk0ODEgMjAuOTI3MSA0Ljk5NDgxQzIyLjA3NDggNC45OTQ4MSAyMy4wMDUyIDUuOTI1MjIgMjMuMDA1MiA3LjA3Mjk0Wk05LjE1MTAzIDE0QzkuMTUxMDMgMTUuMTQ3NyA4LjIyMDYyIDE2LjA3ODEgNy4wNzI5MSAxNi4wNzgxQzUuOTI1MTkgMTYuMDc4MSA0Ljk5NDc4IDE1LjE0NzcgNC45OTQ3OCAxNEM0Ljk5NDc4IDEyLjg1MjMgNS45MjUxOSAxMS45MjE5IDcuMDcyOTEgMTEuOTIxOUM4LjIyMDYyIDExLjkyMTkgOS4xNTEwMyAxMi44NTIzIDkuMTUxMDMgMTRaTTIwLjkyNzEgMjMuMDA1MkMyMi4wNzQ4IDIzLjAwNTIgMjMuMDA1MiAyMi4wNzQ4IDIzLjAwNTIgMjAuOTI3MUMyMy4wMDUyIDE5Ljc3OTQgMjIuMDc0OCAxOC44NDkgMjAuOTI3MSAxOC44NDlDMTkuNzc5NCAxOC44NDkgMTguODQ4OSAxOS43Nzk0IDE4Ljg0ODkgMjAuOTI3MUMxOC44NDg5IDIyLjA3NDggMTkuNzc5NCAyMy4wMDUyIDIwLjkyNzEgMjMuMDA1MloiIGNsaXAtcnVsZT0iZXZlbm9kZCIgZmlsbC1ydWxlPSJldmVub2RkIi8+JiN4YTs8L3N2Zz4=;direction=south;" parent="7hAxIL8bRP7VP4QoqBMZ-1" vertex="1">
          <mxGeometry x="96" y="345" width="20" height="20" as="geometry" />
        </mxCell>
        <mxCell id="vEDVYTk0b1UJSqgttpxH-0" style="edgeStyle=none;shape=connector;rounded=0;orthogonalLoop=1;jettySize=auto;html=1;exitX=0;exitY=0.5;exitDx=0;exitDy=0;entryX=0.5;entryY=0;entryDx=0;entryDy=0;labelBackgroundColor=default;strokeColor=#0d0d0d;strokeWidth=1;align=center;verticalAlign=middle;fontFamily=VK Sans Display;fontSize=11;fontColor=#212121;startArrow=oval;startFill=1;endArrow=oval;endFill=1;" parent="7hAxIL8bRP7VP4QoqBMZ-1" source="vEDVYTk0b1UJSqgttpxH-2" edge="1">
          <mxGeometry relative="1" as="geometry">
            <mxPoint x="372" y="350" as="targetPoint" />
            <Array as="points">
              <mxPoint x="372" y="190" />
            </Array>
          </mxGeometry>
        </mxCell>
        <mxCell id="vEDVYTk0b1UJSqgttpxH-1" value="eth0" style="edgeLabel;html=1;align=center;verticalAlign=middle;resizable=0;points=[];fontSize=14;fontFamily=VK Sans Display;fontColor=#212121;" parent="vEDVYTk0b1UJSqgttpxH-0" vertex="1" connectable="0">
          <mxGeometry x="-0.7472" y="-3" relative="1" as="geometry">
            <mxPoint x="7" y="2" as="offset" />
          </mxGeometry>
        </mxCell>
        <mxCell id="vEDVYTk0b1UJSqgttpxH-2" value="Debian-IPsec-Gate&#xa;StrongSwan" style="shape=image;verticalLabelPosition=bottom;labelBackgroundColor=none;verticalAlign=top;aspect=fixed;imageAspect=0;image=data:image/svg+xml,PHN2ZyB4bWxucz0iaHR0cDovL3d3dy53My5vcmcvMjAwMC9zdmciIGZpbGw9Im5vbmUiIHZpZXdCb3g9IjAgMCAyOCAyOCIgaGVpZ2h0PSIyOCIgd2lkdGg9IjI4Ij4mI3hhOzxwYXRoIGZpbGw9IiMwMDc3RkYiIGQ9Ik0yLjkxNjY2IDE0QzIuOTE2NjYgOC43NzUyNiAyLjkxNjY2IDYuMTYyODkgNC41Mzk3NyA0LjUzOTc3QzYuMTYyODkgMi45MTY2NiA4Ljc3NTI2IDIuOTE2NjYgMTQgMi45MTY2NkMxOS4yMjQ3IDIuOTE2NjYgMjEuODM3MSAyLjkxNjY2IDIzLjQ2MDIgNC41Mzk3N0MyNS4wODMzIDYuMTYyODkgMjUuMDgzMyA4Ljc3NTI2IDI1LjA4MzMgMTRDMjUuMDgzMyAxNS4xNjI2IDI1LjA2MDIgMTYuNDc3NiAyNS4wMzA4IDE3LjUzOThDMjUuMDE1OSAxOC4wNzU5IDI0LjU3NTYgMTguNSAyNC4wMzkzIDE4LjVDMjMuNDczMyAxOC41IDIzLjAxNDkgMTguMDI5MiAyMy4wMTIxIDE3LjQ2MzFDMjMuMDExMSAxNy4yNTUxIDIzLjAwOTIgMTcuMDM4NiAyMy4wMDczIDE2LjgyM0MyMy4wMDQgMTYuNDM5MiAyMy4wMDA3IDE2LjA1ODMgMjMuMDAyMyAxNS43MzM0QzIzLjAwNDIgMTUuMzUwMyAyMi42OTM2IDE1LjAzOTEgMjIuMzEwNiAxNS4wMzkxSDUuNjg5MzlDNS4zMDYzNCAxNS4wMzkxIDQuOTk1NzcgMTUuMzUwMyA0Ljk5NzY4IDE1LjczMzRDNS4wMDY0MiAxNy40ODQzIDUuMDQxMjIgMTguNzc4IDUuMTc5MTQgMTkuODAzOEM1LjM1MTA1IDIxLjA4MjQgNS42NDgxNCAyMS42Mjk3IDYuMDA5MjMgMjEuOTkwN0M2LjM3MDMxIDIyLjM1MTggNi45MTc1NSAyMi42NDg5IDguMTk2MTggMjIuODIwOEM4LjQ0NzY1IDIyLjg1NDYgOC43MTUyMSAyMi44ODIzIDkuMDAxNjUgMjIuOTA0OEM5LjU1ODQxIDIyLjk0ODYgMTAgMjMuNDAzMSAxMCAyMy45NjE2QzEwIDI0LjU1MTEgOS41MDk0IDI1LjAyNjQgOC45MjE1IDI0Ljk4MjZDNi44NjE1MyAyNC44Mjg4IDUuNTIwMTggMjQuNDQwNiA0LjUzOTc3IDIzLjQ2MDJDMi45MTY2NiAyMS44MzcxIDIuOTE2NjYgMTkuMjI0NyAyLjkxNjY2IDE0Wk0yMy4wMDIzIDEyLjI2NjZDMjMuMDA0MiAxMi42NDk2IDIyLjY5MzYgMTIuOTYwOSAyMi4zMTA2IDEyLjk2MDlINS42ODkzOUM1LjMwNjM0IDEyLjk2MDkgNC45OTU3NyAxMi42NDk2IDQuOTk3NjggMTIuMjY2NkM1LjAwNjQyIDEwLjUxNTYgNS4wNDEyMiA5LjIyMjAxIDUuMTc5MTQgOC4xOTYxOEM1LjM1MTA1IDYuOTE3NTUgNS42NDgxNCA2LjM3MDMxIDYuMDA5MjMgNi4wMDkyM0M2LjM3MDMxIDUuNjQ4MTQgNi45MTc1NSA1LjM1MTA1IDguMTk2MTggNS4xNzkxNEM5LjUzNDU5IDQuOTk5MiAxMS4zMjg5IDQuOTk0NzggMTQgNC45OTQ3OEMxNi42NzExIDQuOTk0NzggMTguNDY1NCA0Ljk5OTIgMTkuODAzOCA1LjE3OTE0QzIxLjA4MjQgNS4zNTEwNSAyMS42Mjk3IDUuNjQ4MTQgMjEuOTkwNyA2LjAwOTIzQzIyLjM1MTggNi4zNzAzMSAyMi42NDg5IDYuOTE3NTUgMjIuODIwOCA4LjE5NjE4QzIyLjk1ODggOS4yMjIwMSAyMi45OTM2IDEwLjUxNTYgMjMuMDAyMyAxMi4yNjY2Wk0xNS4xMjQgMjQuNjU4N0wxNi45MTQyIDIwLjQ0MjlDMTYuOTcyNSAyMC4zMTE2IDE3LjA2NzcgMjAuMTUwNSAxNy4yMzIzIDIwLjA0OTZDMTcuMzgzMiAxOS45NTUxIDE3LjU1MTMgMTkuOTI2MyAxNy43MDMyIDE5LjkyNjNDMTcuODM4OCAxOS45MjYzIDE3Ljk4NCAxOS45NTEgMTguMTE5NCAyMC4wMjM3QzE4LjI1NTkgMjAuMDk2OSAxOC4zNTkyIDIwLjIwNjYgMTguNDI3NCAyMC4zMzgxQzE4LjU2OTkgMjAuNTk1MyAxOC41NTExIDIwLjg3MSAxOC40NDA4IDIxLjExM0wxNS45MjI3IDI2Ljg4OTJDMTUuODU4NCAyNy4wMzYxIDE1Ljc2MjEgMjcuMTcwNSAxNS42MjYyIDI3LjI3MjRMMTUuNjIxMiAyNy4yNzYxQzE1LjQ2OTYgMjcuMzg2NCAxNS4yOTYyIDI3LjQyNTYgMTUuMTMyNSAyNy40MjU2QzE0Ljk2NDYgMjcuNDI1NiAxNC43OTgxIDI3LjM4MDkgMTQuNjUxNyAyNy4yNzgxQzE0LjUwODYgMjcuMTc3NiAxNC40MTA4IDI3LjA0MDEgMTQuMzQ1IDI2Ljg5NTJMMTQuMzQyNCAyNi44ODk2TDExLjg0NDcgMjEuMTc4QzExLjc0MTggMjAuOTI4MiAxMS42OTIxIDIwLjYyOSAxMS44MzIxIDIwLjM0ODhDMTEuOTg2NiAyMC4wMzk5IDEyLjI4MzMgMTkuOTI2MyAxMi41NzAzIDE5LjkyNjNDMTIuNzMzIDE5LjkyNjMgMTIuOTAxNCAxOS45NjI4IDEzLjA1MjMgMjAuMDYwNEMxMy4yMDQ1IDIwLjE1ODYgMTMuMzA3MyAyMC4yOTg0IDEzLjM3MTQgMjAuNDUxMkwxMy4zNzE4IDIwLjQ1MjFMMTUuMTI0IDI0LjY1ODdaTTIxLjI4OTUgMjQuMjEwMVYyNi41NTc0QzIxLjI4OTUgMjYuNzkwNCAyMS4yMDUzIDI3LjAwNTEgMjEuMDM3MSAyNy4xNzMzQzIwLjg2ODkgMjcuMzQxNSAyMC42NTQzIDI3LjQyNTYgMjAuNDIxMiAyNy40MjU2QzIwLjE4ODIgMjcuNDI1NiAxOS45NzM1IDI3LjM0MTUgMTkuODA1MyAyNy4xNzMzQzE5LjYzNzEgMjcuMDA1MSAxOS41NTMgMjYuNzkwNCAxOS41NTMgMjYuNTU3NFYyMC43OTQ2QzE5LjU1MyAyMC41NjQxIDE5LjYzMiAyMC4zNDMgMTkuODEwNCAyMC4xNzM1QzE5Ljk3NzkgMjAuMDA4OCAyMC4xOTA1IDE5LjkyNjMgMjAuNDIxMiAxOS45MjYzQzIwLjc1NzcgMTkuOTI2MyAyMS4wMjI3IDIwLjA5OTcgMjEuMTgyMyAyMC4zNzkxTDIxLjE4ODIgMjAuMzg5NUwyMy4zMzQyIDI0LjY4ODNMMjUuNDI0NCAyMC4zOTE0TDI1LjQzMTQgMjAuMzc5MUMyNS41OTExIDIwLjA5OTcgMjUuODU2MSAxOS45MjYzIDI2LjE5MjUgMTkuOTI2M0MyNi40MjMyIDE5LjkyNjMgMjYuNjM1OSAyMC4wMDg4IDI2LjgwMzMgMjAuMTczNkMyNi45ODE4IDIwLjM0MyAyNy4wNjA4IDIwLjU2NDEgMjcuMDYwOCAyMC43OTQ2VjI2LjU1NzRDMjcuMDYwOCAyNi43OTcxIDI2Ljk2ODggMjcuMDEyOCAyNi43OTUxIDI3LjE3ODFDMjYuNjMxOCAyNy4zMzkgMjYuNDIzNiAyNy40MjU2IDI2LjE5MjUgMjcuNDI1NkMyNS45NTk1IDI3LjQyNTYgMjUuNzQ0OCAyNy4zNDE1IDI1LjU3NjYgMjcuMTczM0MyNS40MDg0IDI3LjAwNTEgMjUuMzI0MyAyNi43OTA0IDI1LjMyNDMgMjYuNTU3NFYyNC4xNTg1TDI0LjA2MDUgMjYuNzM0M0wyNC4wNDYyIDI2Ljc1NjJDMjMuODgxMiAyNy4wMDg1IDIzLjYyNzEgMjcuMTcwMiAyMy4zMDY5IDI3LjE3MDJDMjMuMTQ0MyAyNy4xNzAyIDIyLjk4MDQgMjcuMTMxMiAyMi44MzM0IDI3LjAzNjJDMjIuNjg4MyAyNi45NDI1IDIyLjU4NiAyNi44MTE1IDIyLjUxNjUgMjYuNjY4OEwyMS4yODk1IDI0LjIxMDFaIiBjbGlwLXJ1bGU9ImV2ZW5vZGQiIGZpbGwtcnVsZT0iZXZlbm9kZCIvPiYjeGE7PC9zdmc+;fontSize=16;strokeWidth=0;fontFamily=VK Sans Display;fontSource=https%3A%2F%2Ffonts.googleapis.com%2Fcss%3Ffamily%3DArchitects%2BDaughter;" parent="7hAxIL8bRP7VP4QoqBMZ-1" vertex="1">
          <mxGeometry x="480" y="169" width="40" height="40" as="geometry" />
        </mxCell>
        <mxCell id="vEDVYTk0b1UJSqgttpxH-3" value="&lt;font style=&quot;font-size: 14px;&quot; color=&quot;#e188d0&quot;&gt;212.233.72.226&lt;/font&gt;" style="text;html=1;strokeColor=none;fillColor=none;align=center;verticalAlign=middle;whiteSpace=wrap;rounded=0;fontSize=16;fontFamily=VK Sans Display;fontColor=#212121;" parent="7hAxIL8bRP7VP4QoqBMZ-1" vertex="1">
          <mxGeometry x="392" y="160" width="60" height="30" as="geometry" />
        </mxCell>
        <mxCell id="x4tOnGiS2kjFgLEx8-J3-2" value="10.55.4.0/22" style="text;html=1;strokeColor=none;fillColor=none;align=center;verticalAlign=middle;whiteSpace=wrap;rounded=0;fontSize=14;fontFamily=VK Sans Display;fontSource=https%3A%2F%2Ffonts.googleapis.com%2Fcss%3Ffamily%3DArchitects%2BDaughter;" vertex="1" parent="7hAxIL8bRP7VP4QoqBMZ-1">
          <mxGeometry x="670" y="355" width="60" height="30" as="geometry" />
        </mxCell>
      </root>
    </mxGraphModel>
  </diagram>
</mxfile>
